<?xml version="1.0" standalone="no"?>
<!DOCTYPE svg PUBLIC "-//W3C//DTD SVG 20010904//EN"
 "http://www.w3.org/TR/2001/REC-SVG-20010904/DTD/svg10.dtd">
<svg version="1.0" xmlns="http://www.w3.org/2000/svg"
 width="1920.000000pt" height="1921.000000pt" viewBox="0 0 1920.000000 1921.000000"
 preserveAspectRatio="xMidYMid meet">

<g transform="translate(0.000000,1921.000000) scale(0.100000,-0.100000)"
fill="#000000" stroke="none">
<path d="M6926 15367 c3 -8 -6 -18 -20 -25 -17 -7 -29 -25 -37 -54 -7 -24 -18
-50 -24 -58 -7 -8 -10 -21 -8 -27 3 -7 -2 -16 -11 -19 -8 -3 -12 -12 -9 -20 3
-8 0 -14 -6 -14 -6 0 -11 -8 -11 -17 -1 -17 -1 -17 -14 0 -8 10 -20 15 -30 11
-9 -3 -16 -1 -16 5 0 6 -9 11 -19 11 -11 0 -23 5 -26 10 -4 6 -10 8 -16 5 -5
-3 -26 6 -46 20 -21 14 -47 25 -60 25 -50 0 -87 -132 -70 -250 26 -181 31
-345 14 -470 -9 -63 -17 -155 -18 -205 -2 -120 -6 -173 -19 -280 -6 -49 -13
-117 -16 -150 -6 -76 -40 -246 -51 -254 -4 -3 -8 -21 -9 -39 -1 -18 -6 -50
-12 -70 -6 -20 -14 -54 -17 -74 -3 -21 -13 -45 -22 -54 -10 -9 -18 -26 -20
-38 -2 -11 -5 -31 -8 -43 -4 -17 1 -23 23 -28 56 -12 159 -14 242 -5 47 5 131
12 187 15 55 3 116 10 134 15 43 13 209 13 209 1 0 -5 9 -7 20 -4 11 3 26 0
33 -5 7 -6 67 -13 133 -16 77 -2 135 -10 164 -20 46 -17 169 -46 196 -46 9 0
12 5 8 12 -5 8 0 9 16 5 13 -3 44 -1 70 5 42 10 48 15 68 60 12 27 22 55 22
61 0 14 46 163 59 192 32 69 40 164 22 235 -26 98 -19 161 30 269 18 38 21 64
20 189 -1 79 -6 163 -12 185 -12 46 -5 141 17 227 16 62 19 221 4 236 -5 5
-12 34 -14 64 -16 163 -18 175 -40 201 -24 28 -88 54 -110 46 -8 -3 -23 1 -35
9 -12 8 -26 12 -33 8 -6 -4 -8 -3 -5 3 8 13 -21 53 -39 53 -8 0 -14 8 -14 18
0 10 -19 35 -42 56 -39 36 -44 38 -89 32 -34 -5 -49 -3 -52 6 -3 8 -6 6 -6 -4
-1 -13 -9 -18 -29 -18 -15 0 -33 -5 -39 -11 -17 -17 -351 -16 -382 0 -12 7
-37 14 -54 17 -17 2 -35 8 -41 14 -15 15 -46 13 -40 -3z"/>
<path d="M9605 15335 c-27 -7 -58 -16 -67 -20 -11 -4 -18 -3 -18 4 0 16 -233
9 -253 -8 -11 -8 -17 -9 -22 -1 -4 6 -14 10 -23 8 -10 -1 -23 1 -30 6 -7 4
-25 4 -40 0 -15 -4 -30 -7 -33 -6 -46 9 -60 9 -65 1 -3 -5 -10 -7 -15 -3 -5 3
-7 10 -4 15 4 5 1 9 -4 9 -6 0 -11 -4 -11 -8 0 -10 -46 -10 -56 0 -14 15 -84
-42 -84 -68 0 -21 -77 -94 -119 -111 -19 -8 -40 -21 -48 -29 -8 -8 -24 -14
-37 -14 -12 0 -29 -6 -38 -12 -29 -23 -57 -92 -59 -148 -3 -60 -48 -164 -91
-210 -25 -26 -25 -34 -21 -280 1 -47 1 -115 1 -152 -2 -167 4 -366 12 -402 5
-22 6 -44 3 -50 -11 -17 -14 -54 -16 -216 -2 -157 6 -200 37 -200 23 0 83 54
95 86 6 18 24 48 39 67 15 19 33 43 40 53 33 49 107 164 137 214 11 18 34 47
51 65 51 52 67 82 60 111 -5 20 -1 32 21 53 15 16 35 41 43 56 8 15 24 33 35
39 10 6 25 16 32 23 7 6 23 20 35 30 39 32 74 75 56 68 -9 -4 -19 -2 -22 3
-10 16 22 35 74 43 27 4 91 28 143 53 104 51 117 54 110 28 -2 -11 -22 -23
-48 -31 -24 -7 -49 -19 -56 -27 -6 -8 -17 -14 -23 -14 -6 0 -25 -16 -41 -36
-16 -20 -72 -67 -122 -106 -51 -38 -93 -74 -93 -78 0 -5 -17 -26 -37 -47 -54
-56 -93 -109 -93 -127 0 -8 -9 -18 -21 -21 -11 -4 -18 -9 -15 -13 9 -9 53 18
97 60 22 21 49 38 60 38 12 0 23 8 26 20 3 10 13 22 23 25 10 3 21 12 24 20 3
8 12 15 20 15 8 0 24 14 36 30 12 17 30 30 42 30 16 0 11 -8 -26 -43 -25 -23
-46 -47 -46 -54 0 -6 -17 -23 -37 -38 -59 -43 -142 -136 -136 -152 7 -17 -39
-63 -61 -63 -9 0 -24 -17 -35 -39 -19 -36 -47 -58 -59 -46 -3 3 3 14 12 24 10
11 16 25 14 32 -2 7 -32 -21 -66 -62 -35 -41 -74 -86 -88 -101 -40 -44 -94
-117 -94 -128 0 -6 -5 -10 -10 -10 -6 0 -15 -11 -20 -25 -5 -14 -15 -25 -21
-25 -6 0 -9 -6 -6 -14 3 -8 -1 -20 -9 -26 -8 -7 -14 -19 -14 -26 0 -8 -11 -32
-25 -54 -14 -22 -22 -40 -18 -40 4 0 2 -5 -5 -12 -7 -7 -12 -26 -12 -42 0 -17
-7 -58 -16 -91 -66 -254 -102 -541 -85 -666 5 -38 4 -94 -1 -140 -13 -98 9
-197 52 -240 25 -26 28 -37 35 -121 3 -51 11 -107 16 -125 15 -46 -11 -75 -91
-107 -127 -50 -296 -25 -418 62 -17 13 -32 29 -32 35 0 7 -19 32 -42 57 l-42
45 -93 3 c-73 3 -93 1 -94 -10 -5 -44 -8 -57 -26 -93 -13 -25 -36 -49 -61 -63
-22 -12 -42 -28 -45 -35 -3 -9 -43 -12 -153 -11 -150 1 -170 5 -239 47 -36 21
-125 126 -125 147 0 26 -26 35 -112 43 -56 5 -70 3 -91 -13 -14 -11 -28 -32
-32 -47 -8 -33 -39 -78 -80 -115 -30 -28 -156 -75 -173 -64 -4 2 -36 6 -71 7
-34 1 -64 6 -67 11 -3 4 -14 8 -25 8 -45 0 -149 77 -149 110 0 5 -5 10 -10 10
-6 0 -17 18 -26 39 -18 46 -28 49 -147 58 -75 5 -90 4 -107 -12 -11 -10 -20
-28 -20 -41 0 -37 -15 -66 -55 -107 -55 -57 -114 -79 -210 -80 -140 -1 -215
12 -270 45 -60 36 -124 116 -132 164 -8 51 -46 78 -101 70 -46 -6 -91 -33 -92
-54 -1 -44 -92 -137 -167 -169 -55 -24 -228 -21 -305 6 -59 20 -69 27 -116 73
-44 45 -50 54 -57 90 -4 19 -16 47 -28 62 -20 25 -24 26 -43 12 -15 -11 -23
-31 -28 -64 -7 -51 -13 -59 -84 -117 -66 -53 -125 -66 -288 -63 -113 2 -150
-1 -200 -17 -61 -19 -63 -19 -104 0 -85 38 -121 116 -101 220 6 33 13 96 15
140 2 44 12 105 22 135 18 55 51 93 169 195 69 58 73 72 74 225 1 162 2 152
-5 218 -9 82 45 190 121 242 35 24 43 36 49 71 4 23 3 45 -1 48 -5 3 -9 17
-10 31 -4 53 -27 170 -33 170 -8 0 8 98 19 118 4 7 29 27 56 45 66 43 67 58 8
84 -40 18 -64 21 -148 19 -85 -2 -113 -7 -185 -35 -93 -35 -107 -36 -333 -12
-65 7 -123 7 -175 1 -65 -9 -514 -13 -607 -7 -16 1 -46 -3 -67 -10 -20 -6 -39
-9 -43 -5 -3 4 -29 7 -58 8 -29 1 -88 12 -132 24 -70 20 -106 23 -285 25 -114
2 -243 9 -290 16 -49 8 -117 12 -160 9 -41 -3 -302 -4 -580 -3 -594 3 -594 3
-775 -2 -77 -2 -146 -4 -152 -5 -10 0 -13 -29 -13 -112 0 -68 4 -108 9 -99 5
8 14 10 21 6 20 -12 120 -18 120 -7 0 6 10 8 22 4 14 -3 19 -1 14 6 -4 7 3 14
19 18 32 8 266 -5 280 -16 6 -4 24 -10 40 -14 61 -15 95 -37 95 -62 0 -13 5
-24 10 -24 6 0 10 -20 10 -45 0 -38 -4 -47 -27 -62 -16 -10 -30 -20 -33 -24
-13 -16 -52 -29 -87 -29 -51 0 -87 -20 -91 -50 -2 -14 -9 -31 -15 -38 -6 -7
-12 -43 -14 -80 -4 -94 -8 -105 -53 -151 -23 -23 -38 -41 -34 -41 3 0 1 -6 -5
-14 -7 -8 -21 -12 -32 -9 -24 7 -59 -30 -59 -61 0 -12 -7 -31 -15 -43 -25 -36
-29 -96 -9 -138 9 -20 23 -39 31 -42 7 -3 13 -14 13 -25 0 -10 5 -16 10 -13 6
3 13 -1 16 -9 3 -9 14 -16 25 -16 10 0 23 -9 29 -20 8 -15 17 -18 40 -13 20 4
30 1 30 -7 0 -21 74 -84 125 -108 56 -25 80 -26 146 -5 49 14 145 10 163 -8 6
-5 31 -9 56 -9 72 0 90 28 121 185 14 70 29 119 45 142 13 20 24 42 24 49 0 7
9 16 20 19 11 3 20 13 20 21 0 20 29 17 66 -5 l32 -19 12 23 c8 15 13 85 14
216 1 178 3 200 26 271 30 90 63 125 108 112 15 -4 35 -6 45 -5 9 1 20 -5 23
-13 3 -9 12 -16 18 -16 24 0 38 -56 46 -180 4 -69 13 -138 19 -153 17 -43 13
-92 -13 -170 -33 -99 -41 -144 -27 -161 7 -8 9 -25 6 -38 -13 -49 42 -131 87
-129 90 2 143 -1 153 -9 6 -5 32 -16 58 -25 47 -16 87 -9 87 15 0 6 5 10 11
10 10 0 30 14 86 60 7 6 27 13 44 17 28 5 31 4 26 -12 -6 -13 -3 -16 9 -11 28
11 84 -30 103 -74 14 -33 34 -63 46 -72 7 -5 7 -8 0 -8 -22 -1 92 -50 130 -56
22 -4 45 -11 52 -16 13 -10 71 -12 166 -5 44 4 93 0 135 -10 37 -8 74 -15 82
-15 21 0 118 11 160 18 19 3 95 7 168 8 98 1 136 -2 144 -11 6 -7 21 -13 34
-13 19 0 24 -7 30 -36 10 -55 -4 -74 -71 -96 -110 -35 -383 -66 -590 -67 -121
0 -222 -10 -305 -30 -25 -6 -50 -13 -57 -14 -7 -2 -16 -6 -19 -10 -4 -4 -15
-7 -24 -7 -10 0 -23 -6 -29 -14 -6 -7 -25 -16 -42 -20 -22 -4 -34 -15 -44 -40
-17 -41 -12 -60 27 -99 15 -16 28 -37 28 -47 0 -9 7 -23 15 -30 10 -9 15 -9
15 -1 0 6 5 11 11 11 6 0 8 -9 4 -20 -5 -14 -2 -20 9 -20 11 0 16 -9 16 -30 0
-16 6 -33 13 -37 6 -4 13 -19 14 -33 6 -90 7 -93 47 -121 59 -43 98 -40 136
13 16 22 30 49 30 58 0 62 174 110 217 60 21 -24 41 -26 50 -3 12 31 39 49 99
66 85 24 138 22 180 -7 57 -39 69 -62 70 -146 1 -41 3 -76 4 -77 1 -2 3 -7 4
-12 0 -6 7 -16 14 -22 6 -7 12 -22 12 -34 0 -35 23 -74 48 -80 26 -6 20 -25
-9 -25 -10 0 -19 -6 -19 -13 0 -22 -84 -37 -128 -22 -20 7 -38 19 -40 26 -3 8
-19 28 -38 44 -23 21 -35 42 -39 70 -5 38 -28 84 -43 86 -4 1 -19 3 -34 5 -15
1 -40 13 -57 25 -39 28 -61 20 -61 -25 0 -25 11 -48 43 -87 81 -101 82 -167 1
-211 -27 -14 -55 -32 -62 -38 -17 -15 -102 -42 -102 -32 0 3 -7 -4 -16 -17 -9
-12 -12 -26 -8 -31 14 -12 69 -19 84 -10 14 8 60 -7 60 -21 0 -20 92 -42 195
-46 129 -6 175 7 196 57 8 16 17 30 21 30 3 0 14 8 24 17 18 18 84 26 84 10 0
-5 22 -35 49 -66 57 -65 121 -95 185 -84 59 9 69 43 65 228 -3 119 1 165 15
225 10 41 21 91 25 110 9 45 46 87 91 106 31 13 39 13 72 -2 44 -20 77 -60
101 -124 10 -25 28 -63 42 -85 13 -22 36 -63 50 -92 15 -28 48 -69 75 -92 38
-32 51 -50 55 -79 3 -20 10 -44 15 -53 5 -9 12 -34 16 -55 4 -22 10 -41 13
-44 14 -11 41 -60 41 -74 0 -8 11 -28 25 -44 30 -36 55 -104 57 -152 0 -19 7
-43 15 -52 14 -16 25 -78 14 -78 -3 0 -6 -18 -6 -40 0 -22 3 -40 8 -40 4 0 5
-22 2 -50 -2 -28 0 -52 6 -55 5 -4 7 -15 4 -26 -4 -13 -2 -19 6 -17 7 2 15 -6
17 -17 7 -33 35 -89 53 -105 10 -8 20 -37 24 -65 4 -27 4 -47 0 -43 -3 3 -21
-9 -39 -27 -18 -18 -42 -36 -52 -39 -10 -4 -26 -21 -34 -39 l-16 -33 41 -18
c62 -28 339 -34 460 -11 101 20 203 22 234 5 35 -18 512 -29 731 -17 68 4 131
2 155 -4 25 -6 341 -12 819 -14 428 -3 782 -8 787 -11 5 -3 212 -7 461 -10
249 -3 514 -9 588 -14 74 -6 174 -10 221 -10 85 0 149 -13 149 -31 0 -5 5 -9
10 -9 6 0 10 21 10 48 0 50 -18 86 -59 119 -21 17 -25 29 -28 104 -6 133 -26
188 -89 248 -88 83 -112 178 -75 285 13 35 21 84 21 121 0 34 6 100 14 146 8
46 17 117 21 158 4 41 11 88 16 105 6 19 5 41 -2 61 -12 31 3 115 20 115 4 0
18 -11 31 -25 25 -27 59 -32 78 -13 9 9 19 7 42 -10 16 -12 36 -22 45 -22 16
0 20 30 6 58 -19 39 -48 143 -40 147 4 3 9 -1 12 -7 2 -7 7 -10 11 -7 3 3 1
20 -5 38 -13 37 -6 50 16 31 21 -18 32 -4 13 17 -23 27 -54 133 -52 178 3 64
3 65 19 59 10 -4 15 0 15 11 0 9 -4 13 -10 10 -15 -9 -12 11 4 24 8 7 22 27
31 46 19 41 35 45 35 10 0 -24 17 -64 32 -75 11 -8 36 -205 27 -208 -5 -2 -9
-13 -9 -24 0 -14 -5 -18 -15 -14 -10 4 -15 -1 -15 -14 0 -11 -9 -24 -20 -30
-28 -15 -25 -33 10 -53 16 -10 33 -29 36 -42 3 -13 18 -28 34 -35 29 -12 170
-144 170 -159 0 -5 8 -11 18 -15 20 -6 50 -25 70 -43 7 -7 21 -13 31 -13 10 0
23 -11 29 -25 11 -24 14 -25 39 -12 30 14 59 12 82 -7 9 -7 60 -11 145 -10 72
1 122 -2 112 -5 -12 -5 -15 -10 -9 -14 6 -4 24 0 39 8 34 17 54 19 54 5 0 -15
31 -12 50 5 10 9 48 16 112 19 107 6 148 13 148 28 0 19 -70 36 -208 47 -79 7
-187 21 -240 31 -53 10 -140 24 -192 30 -138 18 -135 16 -105 72 37 70 66 96
118 108 64 14 122 11 189 -11 32 -11 67 -19 79 -19 13 0 30 -7 39 -15 19 -18
132 -25 137 -10 5 16 -46 65 -67 65 -11 0 -20 7 -20 15 0 9 -11 20 -24 25 -40
15 -41 30 -2 30 20 0 36 4 36 10 0 5 -6 7 -13 4 -8 -3 -13 4 -14 16 -1 11 2
18 8 15 16 -10 10 27 -8 47 -28 32 -7 30 25 -2 36 -35 42 -37 42 -11 0 11 -19
39 -43 63 -23 24 -48 57 -56 73 -17 39 -22 113 -7 111 23 -3 36 -18 36 -42 0
-13 4 -24 9 -24 15 0 21 56 10 94 -6 21 -8 45 -6 54 3 12 5 11 6 -5 2 -33 20
-38 31 -9 12 32 37 25 43 -12 3 -15 5 -6 4 19 -1 31 5 52 16 63 16 16 18 16
29 -11 7 -15 20 -36 30 -46 16 -15 18 -16 18 -2 0 9 -7 30 -16 46 -8 17 -13
37 -10 45 3 8 0 24 -6 34 -10 16 -10 23 4 36 22 23 39 9 31 -26 -5 -29 11 -44
19 -18 3 8 9 4 17 -10 8 -15 8 -22 1 -22 -6 0 -1 -10 10 -22 11 -12 18 -28 15
-36 -8 -21 6 -37 17 -21 11 16 5 -54 -7 -83 -5 -13 -2 -18 9 -18 9 0 16 5 16
11 0 6 6 9 14 6 8 -3 17 -1 20 6 2 7 5 0 5 -14 1 -33 11 -42 29 -26 13 10 14
6 10 -35 -3 -26 -2 -45 2 -43 5 3 0 -18 -11 -47 -22 -61 -21 -58 -11 -58 4 0
13 14 20 30 15 34 32 40 32 11 0 -11 8 -27 17 -36 16 -16 17 -16 30 1 12 16
13 16 13 -8 0 -15 7 -34 16 -43 9 -8 16 -31 16 -50 0 -18 -7 -44 -16 -57 -22
-31 -21 -35 15 -53 28 -15 32 -15 48 -1 10 9 20 14 23 11 3 -3 11 1 18 10 7 8
19 15 27 15 11 0 11 -4 3 -21 -16 -29 -3 -38 16 -11 8 12 20 20 25 17 5 -4 12
2 16 12 3 10 13 28 21 41 13 20 17 21 31 8 9 -7 37 -14 62 -15 37 0 51 5 69
24 13 14 20 25 16 25 -4 0 -2 9 5 21 l11 21 14 -20 c8 -11 16 -33 17 -49 2
-15 7 -36 11 -46 8 -17 9 -17 22 0 13 17 14 17 20 -4 11 -39 22 -25 13 15 -5
20 -11 45 -14 55 -2 9 -6 21 -9 25 -10 16 -16 105 -10 138 7 40 17 43 32 12
10 -21 11 -19 12 17 2 43 18 96 19 63 1 -22 21 -24 21 -3 0 17 25 20 35 5 3
-5 14 -10 23 -10 11 0 18 -8 19 -21 2 -22 29 -48 50 -49 7 0 17 -18 23 -40 6
-21 15 -42 20 -45 6 -3 10 -18 10 -33 l1 -27 13 24 c12 22 14 18 20 -50 3 -41
2 -89 -4 -108 -12 -41 -5 -52 15 -25 14 18 14 18 15 1 0 -25 24 -16 28 11 2
12 8 22 13 22 15 0 10 -25 -9 -46 -12 -13 -16 -28 -12 -49 5 -29 6 -29 18 -10
12 19 13 18 9 -7 -2 -17 1 -29 9 -32 8 -3 14 0 14 6 0 6 3 8 7 4 4 -4 13 8 20
26 l13 33 -6 -32 c-4 -25 -2 -33 9 -33 16 0 27 -21 27 -51 0 -15 7 -19 31 -19
l32 0 -5 -50 c-3 -27 -3 -50 -1 -50 9 0 42 45 43 58 0 6 6 12 13 12 7 0 21 16
31 35 10 19 23 32 28 29 4 -3 6 -10 3 -15 -4 -5 -2 -9 3 -9 6 0 12 7 16 15 3
8 10 15 16 15 5 0 45 35 87 78 59 59 78 73 81 60 4 -20 22 -24 22 -5 1 16 35
57 48 57 6 0 12 -6 15 -12 5 -15 47 18 47 37 0 27 65 60 96 48 8 -3 14 -11 14
-18 0 -9 19 -4 58 15 173 85 172 85 267 85 76 0 97 -4 139 -25 75 -38 129
-105 166 -208 58 -155 47 -244 -66 -524 -53 -133 -84 -188 -131 -231 -45 -41
-57 -65 -78 -157 -9 -41 -26 -106 -37 -145 -19 -63 -20 -86 -14 -245 5 -151
15 -243 28 -255 1 -2 64 2 138 7 96 8 180 7 292 -1 111 -8 203 -8 320 -1 89 5
170 9 178 8 8 0 43 0 78 0 48 2 62 5 62 17 0 8 6 15 13 15 14 0 -41 30 -65 35
-30 6 -151 79 -156 94 -2 6 -8 9 -13 6 -5 -4 -6 1 -3 10 4 8 1 22 -6 30 -7 8
-10 26 -6 39 3 13 9 54 12 92 7 76 13 92 56 144 15 19 28 44 28 56 0 11 5 34
10 50 6 16 11 61 13 100 2 62 6 76 32 108 17 21 34 46 40 57 5 10 13 19 17 19
3 0 14 8 24 18 10 9 35 22 56 29 33 9 44 9 69 -5 16 -10 29 -23 29 -29 0 -7 9
-18 21 -25 32 -20 58 -91 85 -237 18 -98 25 -164 23 -236 -1 -55 -1 -123 0
-152 1 -28 -3 -54 -8 -58 -6 -3 -11 -19 -11 -36 0 -16 -3 -29 -7 -29 -5 0 -21
-21 -37 -46 -38 -60 -45 -56 151 -93 73 -14 194 -12 303 3 117 17 216 44 167
45 -20 1 -30 7 -34 21 -3 11 -13 20 -23 20 -20 0 -43 23 -33 33 3 4 -1 15 -9
24 -10 11 -16 38 -16 73 -1 30 -7 108 -13 172 -14 130 -11 146 45 259 34 68
67 99 111 104 23 2 38 -6 72 -42 24 -24 43 -50 43 -58 0 -8 5 -15 10 -15 6 0
10 -5 10 -10 0 -6 11 -28 25 -50 14 -22 25 -48 25 -59 0 -11 4 -22 8 -25 5 -3
8 -81 8 -174 l-1 -169 -39 -47 c-25 -31 -36 -54 -33 -66 3 -11 0 -23 -6 -27
-7 -4 0 -10 18 -14 17 -4 48 -12 70 -18 54 -14 352 -33 467 -30 51 2 152 2
223 0 105 -1 138 1 170 15 22 10 42 18 45 19 17 2 30 18 23 28 -25 34 -52 154
-58 256 -3 42 -10 90 -16 108 -8 25 -7 182 1 203 1 3 2 8 1 13 -1 4 23 37 53
73 58 71 71 110 49 154 -37 76 -43 99 -42 165 1 39 1 77 0 85 -3 23 7 221 13
260 7 45 10 92 6 105 -2 6 1 28 7 50 23 82 1 119 -74 130 -26 3 -60 2 -74 -4
-41 -15 -175 5 -239 36 -55 27 -170 132 -170 157 0 7 -3 16 -7 20 -5 4 -13 24
-18 44 -7 26 -18 38 -35 43 -30 7 -80 -15 -80 -36 0 -8 -4 -15 -8 -15 -4 0
-14 -16 -21 -35 -15 -42 -79 -95 -144 -119 -128 -48 -416 35 -455 130 -18 43
-63 64 -137 64 -70 0 -67 3 -125 -91 -40 -66 -136 -112 -231 -112 -122 0 -300
50 -326 90 -15 23 -15 29 5 86 12 34 24 89 27 122 3 33 30 143 60 245 29 102
58 208 63 235 5 28 24 84 42 125 30 71 32 80 27 170 -2 52 -12 124 -20 160 -9
36 -24 99 -32 140 -27 124 -54 198 -133 355 -88 175 -92 181 -103 163 -6 -8
-9 -2 -9 18 0 16 -8 39 -17 50 -10 10 -32 46 -49 79 -33 65 -107 164 -138 185
-16 10 -18 10 -13 -3 7 -19 -29 -11 -61 14 -12 9 -30 15 -40 13 -12 -4 -24 8
-42 43 -17 32 -32 49 -47 51 -14 2 -23 10 -23 22 0 16 -18 30 -40 30 -5 0 -11
-8 -13 -17 -3 -12 -5 -9 -6 8 -1 29 -24 54 -41 44 -5 -3 -10 -23 -10 -43 0
-57 -13 -68 -33 -27 -9 20 -17 44 -17 55 0 10 -4 22 -10 25 -5 3 -10 15 -10
25 0 10 -9 22 -20 25 -23 7 -50 -10 -50 -32 0 -8 -6 -13 -12 -11 -16 5 -22 58
-9 77 8 12 12 11 27 -4 12 -12 19 -14 22 -6 5 16 -19 43 -34 37 -7 -2 -20 4
-30 15 -18 20 -44 26 -44 9 0 -5 -7 -10 -16 -10 -12 0 -14 -7 -9 -32 4 -18 12
-39 18 -46 5 -7 7 -15 4 -19 -9 -9 -37 17 -37 34 0 29 -25 6 -28 -26 -3 -32 1
-36 45 -45 4 0 17 -11 30 -23 12 -13 29 -23 38 -23 8 0 20 -12 25 -26 13 -34
13 -97 0 -89 -6 4 -8 21 -4 42 6 32 5 35 -10 30 -10 -4 -26 -2 -37 4 -15 8
-24 7 -36 -3 -15 -12 -15 -11 -5 9 15 28 15 34 -2 27 -8 -3 -17 0 -21 5 -3 6
-10 9 -15 6 -5 -3 -11 4 -15 15 -5 16 -13 19 -46 16 -33 -3 -39 -1 -35 11 9
22 -13 93 -28 93 -24 0 -34 23 -20 49 11 22 12 22 23 5 10 -18 10 -18 10 1 0
28 -31 86 -52 99 -13 8 -20 8 -27 -4 -8 -12 -10 -11 -10 7 0 13 -19 42 -45 69
-51 52 -58 87 -25 122 12 12 25 22 30 22 15 0 39 91 49 185 29 269 25 347 -22
387 -19 17 -21 17 -41 -3 -26 -25 -87 -33 -136 -18 -35 12 -70 40 -70 57 0 5
-6 15 -14 21 -8 7 -15 20 -15 29 0 107 -48 240 -72 201 -3 -6 -42 -10 -85 -10
-43 0 -111 -7 -150 -15 -39 -8 -90 -15 -113 -17 -22 -1 -41 -5 -41 -9 0 -5 -5
-8 -11 -8 -5 0 -7 5 -4 10 4 7 -7 10 -30 8 -20 -1 -39 -6 -42 -11 -2 -4 -10
-3 -17 2 -8 7 -21 6 -39 -4 -21 -11 -29 -11 -39 -1 -8 7 -38 12 -75 11 -53 -1
-65 -5 -82 -25 -11 -14 -26 -32 -34 -40 -7 -8 -23 -37 -35 -63 -14 -30 -32
-51 -47 -57 -14 -5 -25 -17 -25 -25 0 -9 -5 -13 -11 -10 -5 4 -18 0 -27 -8 -9
-8 -28 -17 -42 -21 -42 -10 -53 -23 -52 -56 1 -44 12 -53 77 -58 30 -2 58 -8
61 -13 3 -5 16 -9 30 -9 14 0 27 -7 30 -15 3 -8 24 -20 45 -25 34 -9 39 -15
39 -40 0 -25 -5 -30 -37 -39 -20 -6 -40 -8 -45 -5 -12 8 -93 -23 -108 -41 -9
-10 -7 -20 5 -39 15 -22 15 -26 3 -26 -8 0 -20 -11 -26 -24 -10 -22 -14 -24
-44 -15 -51 14 -78 11 -78 -8 -1 -17 -1 -17 -11 0 -6 9 -14 15 -20 12 -5 -4
-9 1 -9 11 0 13 -3 14 -15 4 -10 -9 -15 -9 -15 -1 0 22 -2 26 -16 42 -8 9 -23
15 -33 12 -9 -2 -23 3 -30 11 -21 25 -41 19 -42 -11 0 -16 -3 -22 -6 -15 -8
21 -22 13 -32 -20 -8 -30 -9 -28 -10 25 -1 59 -5 63 -43 48 -13 -5 -42 -15
-66 -22 -39 -11 -43 -15 -37 -37 5 -21 3 -23 -12 -18 -33 13 -36 11 -47 -26
-13 -44 -26 -59 -27 -32 -1 10 -1 22 0 27 2 11 -24 8 -37 -5 -9 -9 -12 -9 -12
0 0 6 16 24 35 39 19 15 35 34 35 41 0 15 -4 15 -61 -2 -28 -9 -51 -11 -60 -5
-8 5 -26 9 -40 9 -46 0 -41 14 13 30 47 14 53 19 50 41 -1 13 -6 61 -10 106
-6 73 -10 86 -38 115 -17 18 -39 42 -50 54 -17 19 -47 36 -67 38 -4 1 -25 17
-46 37 -21 21 -50 44 -64 53 -14 10 -28 29 -32 43 -3 14 -19 42 -35 61 -16 20
-27 39 -24 44 7 12 -53 8 -111 -7z m-265 -25 c0 -5 -9 -10 -20 -10 -11 0 -20
5 -20 10 0 6 9 10 20 10 11 0 20 -4 20 -10z m1680 -490 c0 -5 -4 -10 -10 -10
-5 0 -10 5 -10 10 0 6 5 10 10 10 6 0 10 -4 10 -10z m270 -73 c0 -13 -3 -17
-8 -11 -4 6 -16 14 -27 18 l-20 8 20 8 c26 10 35 4 35 -23z m-1346 -3 c21 -8
21 -34 0 -34 -8 0 -12 -4 -9 -10 3 -5 5 -10 3 -11 -35 -7 -88 -8 -88 -2 1 7
68 63 76 63 1 0 9 -3 18 -6z m-206 -133 c-36 -22 -78 -43 -94 -47 l-29 -7 37
37 c20 20 42 36 48 36 5 0 10 5 10 10 0 6 21 10 47 10 l47 0 -66 -39z m664 5
c3 -14 1 -31 -3 -38 -6 -8 -9 1 -9 25 0 42 6 48 12 13z m-217 -56 c-3 -5 -11
-10 -16 -10 -6 0 -7 5 -4 10 3 6 11 10 16 10 6 0 7 -4 4 -10z m-595 -14 c0 -3
-7 -12 -16 -20 -19 -20 -40 -11 -23 10 10 13 39 20 39 10z m390 -15 c0 -6 -5
-13 -11 -16 -5 -4 -15 -19 -21 -33 -9 -22 -12 -24 -15 -9 -3 10 3 29 11 42 16
25 36 33 36 16z m1518 -75 c-22 -16 -23 -35 -3 -42 22 -9 19 -19 -11 -39 -29
-19 -47 -7 -37 24 3 10 -4 7 -16 -8 -12 -13 -21 -34 -21 -47 0 -13 -4 -24 -10
-24 -5 0 -10 7 -10 15 0 20 -10 19 -26 -2 -21 -30 -25 -8 -5 33 20 40 64 87
91 97 8 3 26 6 40 6 23 0 24 -1 8 -13z m-1684 -25 c-15 -14 -64 -22 -64 -11 0
5 11 10 24 10 14 0 28 5 31 11 4 6 10 8 13 4 3 -3 1 -9 -4 -14z m1776 -21 c-8
-5 -19 -10 -25 -10 -5 0 -3 5 5 10 8 5 20 10 25 10 6 0 3 -5 -5 -10z m-1910
-13 c0 -14 -120 -57 -158 -57 -12 0 -41 -19 -67 -44 -36 -36 -45 -41 -45 -25
0 31 51 73 110 91 30 10 75 24 100 32 58 18 60 19 60 3z m2222 -10 c4 -7 3
-14 -2 -17 -12 -7 -14 -62 -5 -116 7 -39 5 -44 -31 -77 -49 -45 -55 -31 -15
32 35 54 38 66 16 75 -10 4 -21 -7 -35 -35 -12 -22 -24 -37 -29 -35 -4 3 -17
-1 -27 -9 -10 -8 -26 -15 -35 -15 -9 0 -19 -7 -23 -15 -3 -8 -10 -15 -15 -15
-7 0 -7 9 0 27 5 14 9 33 8 42 -1 9 3 27 9 41 12 27 26 81 24 91 -3 13 34 37
63 42 39 6 88 -3 97 -16z m-255 -9 c12 0 23 -8 26 -19 3 -11 1 -19 -5 -19 -5
0 -6 -5 -3 -10 5 -8 11 -8 19 -1 29 24 27 -17 -2 -51 -8 -10 -12 -24 -9 -32 3
-8 -3 -25 -13 -38 -17 -21 -19 -21 -20 -4 0 15 -3 16 -15 6 -13 -10 -19 -10
-33 4 -10 9 -23 16 -28 16 -19 0 -34 39 -27 71 4 23 3 30 -5 25 -7 -4 -12 -2
-12 3 0 6 5 11 10 11 6 0 15 11 22 24 9 21 16 24 42 19 17 -3 41 -5 53 -5z
m295 -79 l-8 -54 -8 42 c-8 47 0 91 15 76 6 -6 6 -32 1 -64z m-2572 -49 c0
-11 -7 -20 -15 -20 -27 0 -18 30 13 39 1 1 2 -8 2 -19z m-70 -39 c0 -13 -26
-32 -33 -24 -8 7 11 33 24 33 5 0 9 -4 9 -9z m2680 -71 c-7 -16 -16 -30 -21
-30 -13 0 -11 8 8 41 21 36 30 29 13 -11z m200 -157 c0 -5 -5 -15 -10 -23 -8
-12 -10 -11 -10 8 0 12 5 22 10 22 6 0 10 -3 10 -7z m-2900 -7 c0 -2 -7 -7
-16 -10 -8 -3 -12 -2 -9 4 6 10 25 14 25 6z m-420 -286 c0 -5 -4 -10 -10 -10
-5 0 -10 5 -10 10 0 6 5 10 10 10 6 0 10 -4 10 -10z m-110 -105 c0 -3 -10 -25
-22 -48 -12 -23 -23 -44 -23 -47 -10 -52 -105 -180 -133 -180 -16 1 -15 2 1
14 9 7 17 21 17 30 0 9 7 19 15 22 17 7 49 60 59 99 12 46 86 141 86 110z
m-5857 -90 c105 -2 174 -12 192 -26 10 -8 31 -9 128 -9 34 1 47 -3 47 -13 0
-8 6 -20 14 -26 15 -13 4 -58 -25 -98 -18 -26 -62 -45 -84 -37 -8 4 -21 1 -29
-5 -7 -6 -15 -8 -18 -6 -9 10 -56 -61 -67 -101 -8 -28 -23 -47 -51 -67 -37
-26 -42 -27 -82 -17 -46 13 -86 50 -112 105 -20 42 -58 64 -79 46 -8 -6 -18
-39 -23 -74 -11 -84 -10 -80 -19 -99 -4 -10 -16 -18 -26 -18 -10 0 -19 -6 -19
-14 0 -22 -100 -40 -134 -25 -14 7 -26 15 -26 18 0 3 -7 14 -14 24 -12 16 -19
17 -56 7 -23 -6 -39 -14 -36 -17 14 -14 -38 -53 -71 -53 -32 0 -45 -14 -20
-23 6 -2 0 -8 -14 -11 -16 -5 -30 -19 -37 -39 -22 -58 -73 -108 -122 -118 -89
-19 -140 -20 -146 -4 -4 8 -13 15 -21 15 -8 0 -11 5 -7 11 3 6 1 28 -6 49 -11
33 -10 44 4 73 9 19 16 39 16 44 0 17 81 83 100 83 11 0 31 5 45 12 24 11 24
12 9 30 -10 10 -30 18 -45 18 -18 0 -30 6 -34 19 -3 10 -20 25 -37 32 -37 15
-84 105 -73 140 8 24 52 69 67 69 5 0 30 9 55 21 56 25 122 20 167 -12 20 -15
30 -18 36 -10 5 9 10 8 20 -4 23 -28 117 -15 142 19 4 6 12 5 21 -3 12 -9 22
-8 51 8 24 14 45 19 66 15 24 -5 30 -3 30 10 0 9 7 28 16 41 15 22 22 24 75
22 32 -2 59 1 59 5 0 5 16 6 36 2 19 -3 81 -8 137 -9z m-398 -35 c3 -5 1 -10
-4 -10 -6 0 -11 5 -11 10 0 6 2 10 4 10 3 0 8 -4 11 -10z m796 -103 c-8 -8
-11 -7 -11 4 0 20 13 34 18 19 3 -7 -1 -17 -7 -23z m6784 -1185 c-15 -16 -16
-15 -4 12 7 15 15 23 17 16 3 -7 -3 -19 -13 -28z m30 -42 c3 -5 1 -10 -4 -10
-6 0 -11 5 -11 10 0 6 2 10 4 10 3 0 8 -4 11 -10z m-678 -167 c2 -6 -5 -16
-15 -22 -17 -9 -20 -7 -18 14 1 26 25 32 33 8z m-396 -48 c5 4 9 3 9 -2 0 -4
3 -46 6 -93 3 -47 1 -96 -4 -110 -8 -21 -11 -14 -16 45 -4 39 -11 96 -16 129
-5 32 -6 64 -2 70 4 6 8 -1 10 -17 2 -15 8 -25 13 -22z m-231 -149 c0 -17 4
-47 9 -66 18 -68 23 -130 11 -130 -21 0 -188 174 -195 203 -6 24 -2 32 30 60
20 18 51 44 68 59 l31 28 23 -61 c13 -34 23 -76 23 -93z m760 122 c0 -16 -3
-19 -11 -11 -6 6 -8 16 -5 22 11 17 16 13 16 -11z m-141 5 c0 -5 -4 -17 -9
-28 -8 -18 -9 -17 -9 8 -1 15 4 27 9 27 6 0 10 -3 9 -7z m33 -15 c-7 -7 -12
-8 -12 -2 0 14 12 26 19 19 2 -3 -1 -11 -7 -17z m211 2 c-3 -11 -7 -20 -9 -20
-2 0 -4 9 -4 20 0 11 4 20 9 20 5 0 7 -9 4 -20z m-1033 -249 c0 -13 96 -111
108 -111 7 0 12 -5 12 -11 0 -15 -110 -5 -148 13 -29 14 -39 42 -41 121 l-1
48 35 -27 c19 -14 35 -30 35 -33z m350 -45 c0 -2 -7 -6 -15 -10 -8 -3 -15 -1
-15 4 0 6 7 10 15 10 8 0 15 -2 15 -4z m2412 -171 c-9 -19 -22 -35 -29 -35
-14 0 -8 20 17 57 21 33 30 18 12 -22z m-8035 -21 c-3 -3 -12 -4 -19 -1 -8 3
-5 6 6 6 11 1 17 -2 13 -5z m46 -37 c-3 -5 -10 -4 -15 1 -6 6 -7 16 -3 22 6 9
9 9 16 -1 4 -7 5 -17 2 -22z m7963 -39 c-19 -27 -21 -19 -4 18 7 14 14 21 16
15 2 -6 -4 -21 -12 -33z m-6489 -118 c31 -18 83 -108 83 -141 0 -8 5 -20 10
-25 18 -18 15 -211 -3 -287 -9 -37 -19 -81 -22 -97 -3 -17 -21 -64 -41 -106
-35 -74 -75 -114 -115 -114 -25 0 -74 28 -74 42 -1 7 -9 25 -19 40 -24 36 -32
127 -16 182 11 39 10 51 -5 88 -10 25 -17 71 -17 115 -1 63 3 82 32 140 56
113 109 177 150 182 3 1 19 -8 37 -19z m10212 -15 c50 -15 108 -74 116 -119 6
-30 3 -42 -17 -69 -14 -17 -33 -48 -43 -67 -10 -18 -23 -40 -30 -47 -17 -17
-43 -106 -48 -167 -3 -29 1 -70 11 -100 8 -28 14 -66 13 -85 -1 -26 1 -32 14
-28 8 4 15 2 15 -2 0 -5 3 -18 7 -28 6 -17 5 -17 -13 -2 -12 9 -43 16 -84 18
-104 4 -122 20 -134 121 -2 14 -18 57 -36 95 -33 68 -34 73 -34 206 -1 117 2
140 17 156 9 11 17 25 17 31 0 7 7 12 15 12 8 0 15 7 15 15 0 8 6 15 13 15 7
0 28 11 48 24 49 34 78 38 138 21z m-9341 -357 c25 -55 30 -82 23 -134 0 -5
-9 -19 -19 -30 -10 -11 -22 -32 -26 -47 -8 -34 -43 -37 -55 -4 -31 80 -41 136
-30 164 23 57 32 72 40 67 4 -2 10 0 14 6 3 5 1 10 -6 10 -8 0 -8 4 1 15 21
25 29 18 58 -47z m6818 -168 c33 -51 35 -58 41 -164 6 -120 -9 -208 -48 -274
-10 -18 -19 -42 -19 -53 0 -11 -11 -31 -24 -43 -18 -19 -30 -23 -55 -17 -32 6
-41 17 -73 91 -81 185 -85 208 -45 287 77 152 100 191 127 216 38 34 49 29 96
-43z m-7663 -319 c45 -29 60 -58 58 -114 -1 -44 -5 -56 -33 -83 -18 -17 -48
-34 -66 -38 -28 -5 -38 -1 -62 22 -62 62 -66 198 -8 222 37 14 81 11 111 -9z"/>
<path d="M11621 14284 c-13 -13 -21 -27 -17 -31 4 -4 10 -3 14 3 4 6 15 13 25
17 9 3 17 13 17 22 0 20 -10 17 -39 -11z"/>
<path d="M2276 13352 c-3 -6 -1 -14 5 -17 15 -10 25 3 12 16 -7 7 -13 7 -17 1z"/>
<path d="M2275 13278 c-3 -7 -6 -24 -7 -38 -2 -19 2 -26 20 -28 27 -4 36 16
23 51 -11 29 -29 35 -36 15z"/>
<path d="M4863 13920 c-3 -11 -10 -20 -15 -20 -5 0 -7 -4 -4 -9 3 -5 15 -7 25
-4 24 6 34 40 14 47 -9 4 -17 -1 -20 -14z"/>
<path d="M4575 13740 c-3 -5 1 -10 9 -10 8 0 18 5 21 10 3 6 -1 10 -9 10 -8 0
-18 -4 -21 -10z"/>
<path d="M4226 13642 c-2 -4 11 -8 30 -8 19 0 34 4 34 8 0 4 -13 8 -29 8 -17
0 -32 -4 -35 -8z"/>
<path d="M15173 13488 c-36 -45 -49 -221 -21 -273 73 -139 96 -220 99 -350 0
-38 7 -97 14 -130 8 -33 19 -91 25 -130 7 -38 16 -83 21 -99 5 -16 9 -48 9
-71 0 -23 4 -55 9 -71 14 -48 34 -137 36 -164 1 -14 7 -52 13 -85 6 -33 16
-98 21 -144 6 -46 16 -90 22 -97 6 -7 35 -29 64 -48 82 -55 88 -70 93 -221 2
-88 8 -135 17 -145 7 -8 20 -31 28 -51 21 -50 98 -123 145 -137 76 -23 117 -9
147 48 14 28 13 110 -3 135 -12 17 -31 99 -32 131 0 43 20 96 44 116 12 10 27
23 34 29 8 6 47 17 87 24 70 12 173 8 259 -11 46 -10 124 -49 150 -75 58 -59
141 -101 232 -118 102 -19 228 -71 279 -115 17 -15 48 -32 70 -38 22 -7 50
-18 63 -26 12 -8 22 -11 22 -6 0 4 5 3 12 -4 15 -15 68 -15 105 -1 15 7 51 13
78 14 98 5 150 17 176 41 14 14 39 28 55 33 43 12 122 4 141 -14 8 -9 28 -19
44 -22 16 -3 40 -16 54 -29 14 -13 35 -24 46 -24 11 0 30 -5 42 -12 12 -6 47
-11 79 -11 51 1 60 4 93 37 19 20 40 36 45 36 14 0 49 37 42 44 -3 4 9 12 26
18 19 8 30 18 28 25 -3 7 0 12 6 10 6 -1 12 3 15 10 5 15 -29 46 -59 53 -28 7
-58 58 -51 88 3 13 -1 30 -9 40 -8 9 -17 24 -20 32 -9 25 -89 59 -164 69 -74
11 -116 5 -184 -26 -19 -9 -65 -18 -102 -21 -58 -4 -71 -2 -86 14 -9 11 -24
20 -32 22 -28 6 -80 33 -80 42 0 6 -7 10 -16 10 -25 0 -114 70 -125 97 -12 32
-11 67 1 38 l8 -20 7 20 c15 43 30 68 47 74 9 3 17 11 18 16 1 12 49 27 62 19
4 -3 15 1 23 8 59 51 72 67 63 76 -6 6 2 14 26 22 37 12 46 24 24 33 -7 3 1 6
19 6 24 1 42 11 70 41 21 21 47 39 58 38 11 0 28 3 38 7 12 5 17 3 17 -9 0 -9
-6 -16 -12 -16 -7 0 -2 -7 10 -16 13 -9 22 -23 20 -32 -2 -10 7 -25 19 -35 13
-10 23 -25 23 -32 0 -7 6 -20 13 -27 6 -7 18 -25 26 -40 8 -16 18 -28 23 -28
5 0 27 -12 49 -26 47 -29 82 -29 159 1 25 10 59 19 75 21 17 2 40 6 53 9 12 3
22 1 22 -4 0 -18 162 -65 177 -50 4 4 74 11 155 17 144 9 178 18 178 47 0 7 7
18 15 25 9 7 15 29 15 51 0 21 5 41 10 44 6 3 10 24 10 46 0 44 10 48 56 24
26 -13 29 -13 32 0 2 8 13 15 24 15 14 0 18 -5 14 -15 -3 -8 3 -20 14 -28 10
-7 18 -19 18 -27 -3 -49 2 -60 30 -60 15 0 33 -4 41 -9 9 -6 24 -5 39 0 14 5
49 10 79 11 l53 2 0 490 0 491 -80 -5 c-69 -4 -80 -3 -80 11 0 16 -38 38 -68
40 -14 0 -13 2 3 9 l20 9 -20 1 c-11 1 -27 2 -37 1 -9 -1 -19 2 -22 8 -4 5
-30 7 -61 4 -41 -4 -55 -2 -55 7 0 10 -3 10 -15 0 -8 -7 -36 -13 -63 -15 -40
-1 -47 -5 -50 -23 -2 -14 -11 -22 -22 -22 -10 0 -28 -12 -40 -27 -17 -21 -25
-25 -37 -17 -12 8 -27 5 -54 -8 -41 -20 -69 -23 -69 -9 0 13 -81 51 -108 51
-12 0 -22 -6 -22 -14 0 -8 -15 -16 -38 -20 -40 -6 -78 -36 -65 -51 5 -4 0 -5
-9 -2 -9 3 -22 -1 -28 -8 -7 -8 -16 -12 -21 -9 -5 3 -7 -1 -4 -8 5 -13 -42
-47 -79 -58 -11 -3 -21 -11 -24 -18 -2 -7 2 -10 12 -6 9 3 16 1 16 -5 0 -6 -4
-11 -10 -11 -20 0 -9 -31 14 -39 27 -11 36 -30 36 -73 0 -17 7 -36 16 -42 12
-9 13 -17 4 -40 -9 -24 -8 -27 5 -22 8 3 15 1 15 -4 0 -6 -8 -10 -17 -10 -16
-1 -16 -2 2 -16 16 -12 17 -16 6 -23 -9 -6 -24 -2 -43 12 -33 25 -87 27 -158
8 -54 -15 -77 -21 -110 -26 -14 -3 -42 -10 -63 -17 -28 -8 -43 -8 -62 0 -33
15 -35 15 -35 -4 0 -12 -10 -7 -39 17 -21 19 -51 42 -66 53 -18 12 -25 24 -22
37 9 32 -22 78 -65 99 -22 11 -45 17 -49 14 -5 -3 -9 0 -9 5 0 7 -22 11 -53
11 -39 0 -58 -5 -70 -18 -9 -10 -40 -25 -68 -32 -27 -8 -52 -18 -55 -22 -3 -4
-16 -8 -28 -8 -13 0 -29 -6 -35 -14 -13 -15 -47 -16 -71 -1 -8 5 -21 10 -30
12 -8 1 -42 7 -74 13 -40 7 -61 8 -66 1 -3 -6 -22 -13 -40 -16 -19 -3 -29 -3
-22 1 16 7 5 25 -12 18 -8 -3 -11 -16 -8 -34 4 -27 2 -30 -19 -28 -13 2 -24
-1 -24 -7 -3 -31 -18 -75 -26 -75 -5 0 -9 -13 -9 -29 0 -16 -6 -31 -15 -35 -8
-3 -15 -10 -15 -15 0 -11 -47 -61 -57 -61 -3 0 -11 -8 -18 -17 -11 -14 -18
-15 -57 -4 -51 14 -98 50 -98 75 0 9 -5 16 -11 16 -6 0 -9 7 -5 15 3 8 2 15
-3 15 -4 0 -8 25 -9 55 -1 40 4 65 19 90 12 19 17 35 12 35 -5 0 -8 14 -5 30
2 17 8 30 13 30 5 0 9 7 9 15 0 8 -7 15 -15 15 -20 0 -19 16 1 24 12 5 13 10
5 19 -7 10 -7 17 0 24 15 15 -6 85 -31 101 -11 7 -20 19 -20 27 0 8 -4 15 -10
15 -5 0 -9 28 -8 63 2 79 -28 182 -58 202 -31 20 -180 38 -255 30 -116 -12
-269 -17 -287 -10 -23 10 -33 12 -142 19 -116 8 -215 22 -340 47 -111 22 -134
23 -147 7z m2587 -848 c0 -5 -7 -10 -15 -10 -8 0 -15 5 -15 10 0 6 7 10 15 10
8 0 15 -4 15 -10z m-1115 -629 c-3 -6 9 -8 29 -4 24 4 40 1 50 -10 16 -16 120
-18 144 -3 7 4 12 1 12 -9 0 -12 4 -14 17 -6 13 7 25 4 48 -12 41 -29 45 -36
32 -64 -11 -25 -32 -30 -41 -10 -3 6 -4 0 -1 -16 5 -24 2 -28 -25 -33 -16 -4
-41 -18 -55 -32 -22 -21 -33 -24 -86 -23 -42 1 -70 7 -88 20 -14 10 -36 21
-48 25 -11 4 -27 13 -33 21 -7 8 -20 15 -30 15 -23 0 -62 35 -76 68 -7 15 -13
22 -13 15 -1 -14 -31 -6 -31 8 0 14 58 40 65 29 4 -7 17 -3 33 9 27 20 109 30
97 12z"/>
<path d="M1647 12064 c-15 -8 -66 -19 -113 -25 -143 -16 -176 -47 -128 -118
15 -23 30 -41 34 -41 13 0 29 -117 21 -147 -5 -15 -7 -39 -6 -53 1 -22 7 -25
45 -28 32 -2 51 2 71 17 32 24 55 27 62 8 7 -18 188 -75 256 -80 47 -4 58 -1
77 18 35 35 41 90 16 139 -24 47 -30 85 -18 105 5 8 3 17 -5 23 -11 7 -11 11
-1 15 14 6 16 62 2 64 -5 1 -13 2 -17 3 -5 1 -20 14 -35 29 -15 15 -41 30 -58
33 -16 4 -30 10 -30 14 0 10 -46 23 -91 26 -20 1 -41 4 -45 7 -5 3 -22 -1 -37
-9z"/>
<path d="M12100 11575 c-63 -34 -153 -98 -157 -111 -3 -10 9 -15 70 -26 14 -2
22 9 35 47 19 56 45 75 103 75 51 0 202 -102 219 -147 25 -72 42 -10 18 69
-12 42 -20 48 -118 90 -78 34 -111 34 -170 3z"/>
<path d="M8 11453 c9 -3 10 -9 2 -18 -7 -8 -9 -131 -8 -371 l3 -359 37 -3 c23
-2 38 1 38 8 0 6 5 8 10 5 6 -4 17 -2 24 4 14 11 36 9 215 -19 65 -11 77 -10
106 6 43 23 40 27 -94 163 -57 58 -105 115 -106 126 -1 11 -7 19 -13 18 -28
-7 -55 118 -29 134 13 8 27 35 33 63 2 8 -4 22 -13 32 -9 10 -13 26 -10 38 3
13 0 20 -9 20 -8 0 -20 14 -26 30 -12 35 -50 49 -74 29 -15 -12 -16 -9 -10 31
3 25 3 39 0 32 -4 -9 -13 -6 -29 13 -13 14 -32 25 -42 24 -11 0 -13 -3 -5 -6z"/>
<path d="M11897 11313 c-4 -3 -7 -33 -7 -65 0 -50 4 -63 25 -84 19 -19 29 -23
39 -15 9 7 19 6 35 -5 16 -12 34 -14 63 -10 36 6 46 3 77 -22 58 -46 61 -46
61 -13 0 25 -6 32 -35 42 -19 7 -35 17 -35 21 0 13 -69 71 -108 90 -19 10 -49
29 -67 43 -37 27 -39 28 -48 18z"/>
<path d="M8818 11294 c-10 -10 4 -44 18 -44 16 0 19 16 4 25 -6 4 -8 11 -5 16
7 10 -8 13 -17 3z"/>
<path d="M17994 11151 c3 -5 -13 -18 -37 -29 -43 -21 -100 -72 -79 -72 7 0 27
-14 45 -31 30 -30 35 -31 90 -25 31 3 75 15 96 26 33 16 38 23 33 42 -9 36
-34 69 -48 64 -7 -3 -29 4 -50 15 -41 21 -58 24 -50 10z"/>
<path d="M11807 11123 c-2 -5 -4 -35 -4 -68 0 -33 2 -52 4 -43 6 23 78 21 78
-2 0 -9 -7 -14 -17 -12 -10 2 -18 -2 -18 -7 0 -5 17 -8 38 -6 20 1 49 3 65 4
20 1 27 6 27 21 0 11 -5 20 -10 20 -6 0 -15 11 -21 24 -7 14 -23 26 -40 30
-16 3 -39 15 -51 26 -22 20 -44 26 -51 13z"/>
<path d="M9623 11052 c-35 -2 -63 -7 -63 -12 0 -6 7 -10 15 -10 7 0 18 -7 23
-16 13 -24 130 -21 147 4 28 39 20 41 -122 34z"/>
<path d="M12330 11031 c0 -11 -3 -28 -6 -38 -5 -14 -4 -15 5 -7 15 14 22 64
10 64 -5 0 -9 -9 -9 -19z"/>
<path d="M15803 10968 c-25 -18 -35 -34 -43 -75 -6 -29 -9 -57 -5 -63 3 -5 1
-37 -5 -71 -10 -52 -9 -64 4 -78 9 -10 16 -21 16 -25 0 -20 41 -46 81 -51 34
-5 51 -1 77 14 17 12 31 26 30 33 -2 6 6 14 17 16 11 2 22 8 25 12 3 4 32 12
66 19 55 10 65 9 119 -13 55 -22 61 -23 103 -9 24 9 54 26 67 39 13 13 29 24
35 24 5 0 10 11 10 25 0 14 4 25 10 25 10 0 35 51 44 90 4 20 -1 29 -27 44
-101 62 -132 66 -245 36 -40 -11 -85 -17 -100 -15 -110 17 -163 29 -168 36
-10 18 -79 9 -111 -13z"/>
<path d="M1150 10938 c0 -6 10 -25 23 -42 12 -17 31 -48 41 -69 32 -62 62 -27
32 37 -28 58 -96 111 -96 74z"/>
<path d="M16650 10937 c-20 -7 -41 -25 -52 -44 -18 -30 -18 -32 0 -65 14 -25
26 -34 52 -36 67 -7 97 5 118 49 24 48 18 77 -19 96 -29 16 -54 15 -99 0z"/>
<path d="M17160 10794 c-116 -39 -160 -69 -160 -108 0 -10 -22 -40 -49 -65
-37 -35 -54 -62 -71 -111 -13 -36 -36 -93 -51 -128 -27 -59 -28 -65 -13 -87
14 -22 21 -23 86 -20 39 2 75 8 81 14 6 6 20 11 32 11 11 0 31 7 43 16 13 9
31 13 43 9 16 -5 19 -4 14 5 -6 10 -1 11 18 6 16 -4 49 1 84 13 32 10 109 24
172 30 71 7 118 16 123 23 4 7 8 9 8 5 0 -5 24 12 53 38 28 26 63 55 77 64 14
9 34 27 45 41 11 14 43 50 72 80 58 60 67 97 37 148 -14 25 -20 27 -90 27 -62
0 -77 -3 -85 -18 -7 -12 -17 -15 -35 -11 -18 5 -24 2 -24 -10 0 -10 -9 -16
-25 -16 -14 0 -25 -4 -25 -10 0 -5 -18 -10 -40 -10 -22 0 -40 4 -40 10 0 5
-13 7 -29 4 -16 -4 -32 -1 -35 5 -4 6 -16 11 -27 11 -10 0 -28 9 -39 20 -27
27 -93 33 -150 14z"/>
<path d="M2665 10795 c-5 -2 -45 -9 -88 -16 -85 -14 -108 -32 -86 -68 26 -41
143 -82 182 -63 45 21 145 42 210 44 37 1 67 3 67 6 0 10 -34 34 -92 67 -54
29 -74 35 -124 34 -32 0 -63 -2 -69 -4z"/>
<path d="M12139 10770 c-19 -15 -20 -19 -8 -20 9 0 27 9 40 20 19 15 20 19 8
20 -9 0 -27 -9 -40 -20z"/>
<path d="M8830 10460 c-8 -5 -28 -10 -45 -10 -16 0 -36 -4 -44 -9 -21 -14 2
-38 49 -52 21 -6 57 -29 80 -50 36 -33 49 -39 86 -39 24 0 44 5 44 10 0 6 9
10 20 10 10 0 24 9 31 21 8 15 14 18 22 10 6 -6 19 -11 29 -11 10 0 18 -4 18
-10 0 -5 5 -10 11 -10 5 0 7 5 3 12 -5 8 0 9 14 6 12 -4 25 -2 28 3 3 5 17 9
32 9 33 0 89 32 119 69 40 48 23 54 -48 19 -62 -32 -160 -30 -252 6 -70 27
-168 35 -197 16z"/>
<path d="M11570 10422 c0 -44 43 -87 70 -70 20 13 17 28 -6 28 -8 0 -14 3 -14
8 -1 4 -12 21 -25 37 l-25 30 0 -33z"/>
<path d="M16780 10350 c0 -5 5 -10 10 -10 6 0 10 5 10 10 0 6 -4 10 -10 10 -5
0 -10 -4 -10 -10z"/>
<path d="M16375 10298 c-16 -6 -43 -15 -58 -21 -58 -21 -168 -160 -150 -190 3
-6 1 -7 -4 -4 -9 6 -19 -21 -25 -70 -1 -6 -12 -14 -25 -18 -12 -3 -23 -11 -23
-18 0 -7 -27 -25 -60 -40 -35 -15 -60 -33 -60 -42 0 -8 -5 -15 -12 -15 -16 0
-1 -13 20 -17 9 -2 55 -3 102 -4 47 0 108 -7 137 -14 50 -13 142 -19 248 -15
28 1 92 2 143 2 50 1 92 2 92 4 0 11 -46 44 -56 40 -7 -3 -15 2 -18 10 -3 9
-10 12 -16 9 -6 -3 -13 2 -16 12 -11 35 -21 48 -45 53 -53 13 -25 134 48 205
24 24 43 48 43 54 0 6 7 11 15 11 18 0 39 36 26 45 -10 6 -236 35 -261 34 -8
-1 -28 -6 -45 -11z"/>
<path d="M10210 10260 c0 -5 5 -10 10 -10 6 0 10 5 10 10 0 6 -4 10 -10 10 -5
0 -10 -4 -10 -10z"/>
<path d="M8938 10064 c-28 -8 -39 -63 -19 -99 26 -47 77 -66 209 -78 64 -6
132 -11 150 -11 18 0 32 -5 32 -12 0 -13 -31 -24 -68 -24 -12 0 -40 -9 -62
-20 -21 -11 -45 -17 -53 -15 -7 3 -22 -3 -32 -15 -10 -11 -24 -20 -32 -20 -15
0 -16 -9 -5 -27 5 -8 19 -9 47 -4 22 5 66 8 98 7 36 -1 62 4 69 11 6 7 7 13 4
13 -20 0 25 29 55 35 19 4 47 14 63 22 28 14 115 12 184 -4 20 -5 22 -2 18 21
-9 50 -17 65 -39 72 -12 4 -24 10 -27 15 -3 5 -51 15 -105 24 -101 16 -172 36
-300 82 -68 25 -152 37 -187 27z"/>
<path d="M16720 9840 c0 -5 5 -10 10 -10 6 0 10 5 10 10 0 6 -4 10 -10 10 -5
0 -10 -4 -10 -10z"/>
<path d="M17305 9830 c-8 -26 -1 -37 29 -42 18 -4 26 0 29 14 3 11 0 18 -9 18
-8 0 -14 7 -14 15 0 22 -28 18 -35 -5z"/>
<path d="M11725 9729 c-9 -29 4 -38 21 -15 18 25 18 36 0 36 -8 0 -18 -9 -21
-21z"/>
<path d="M9011 9701 c-21 -16 -21 -19 -6 -24 23 -9 85 -8 110 3 19 7 19 8 -5
18 -14 5 -28 8 -32 5 -4 -2 -16 0 -26 6 -13 7 -24 5 -41 -8z"/>
<path d="M12194 9548 c0 -146 -5 -165 -86 -357 -31 -72 -37 -95 -27 -101 17
-11 -8 -67 -73 -168 -59 -90 -82 -119 -429 -557 -74 -93 -144 -182 -154 -196
-11 -15 -71 -93 -133 -173 -123 -159 -336 -485 -397 -606 -58 -116 -120 -205
-235 -332 -58 -64 -121 -136 -141 -159 -44 -53 -48 -52 -151 42 -164 149 -384
343 -405 356 -15 10 -30 12 -54 6 l-32 -9 44 -45 c24 -26 105 -102 179 -170
74 -68 137 -126 140 -129 3 -3 44 -39 93 -79 48 -40 87 -77 87 -82 0 -5 -39
-62 -87 -127 -49 -65 -92 -125 -98 -134 -5 -10 -62 -95 -126 -190 -64 -95
-124 -189 -134 -208 -10 -19 -32 -57 -50 -85 -17 -27 -55 -86 -83 -130 -28
-44 -92 -168 -143 -275 -50 -107 -113 -240 -139 -295 -26 -55 -66 -122 -89
-150 -22 -27 -41 -53 -41 -57 0 -9 -40 -31 -46 -25 -3 2 10 40 27 83 29 72 32
89 34 199 2 160 24 575 30 585 7 12 -21 194 -40 256 -8 28 -35 97 -60 154 -53
120 -75 199 -75 264 0 47 -22 72 -52 61 -8 -3 -31 1 -51 10 -48 20 -60 19 -52
-4 4 -13 0 -20 -15 -24 -15 -4 -20 0 -20 14 0 11 7 22 15 25 17 7 21 59 5 69
-6 4 -17 2 -23 -4 -15 -11 -57 -11 -57 1 0 4 10 8 23 8 27 0 118 42 134 62 6
7 11 18 12 23 0 6 6 11 13 13 19 4 18 -40 -1 -55 -14 -11 -12 -12 10 -13 14 0
30 -5 37 -12 19 -19 29 0 46 82 9 41 36 117 61 168 43 90 45 98 45 183 0 97
16 148 48 150 37 3 58 -3 94 -27 39 -25 57 -18 37 14 -28 45 -79 59 -131 37
-25 -10 -24 27 7 154 14 57 50 215 80 350 30 136 64 283 75 327 44 162 124
383 186 512 35 72 64 145 64 160 0 37 17 52 56 52 30 0 33 -3 57 -68 14 -38
37 -86 51 -107 14 -21 26 -41 26 -46 0 -16 62 -69 81 -69 21 0 27 20 7 20 -9
1 117 50 126 50 1 0 10 17 21 38 30 58 75 96 88 75 2 -5 2 -2 1 5 -3 11 14 16
42 13 7 -1 14 8 17 19 3 13 13 20 29 20 14 0 28 3 32 8 4 4 24 8 44 9 20 1 53
3 72 4 19 1 42 7 50 15 8 7 29 11 45 9 20 -2 40 5 60 19 31 23 63 39 80 41 6
0 15 3 20 6 6 4 22 9 38 13 15 3 27 13 27 21 0 7 34 41 75 75 41 34 75 69 76
78 0 11 3 12 6 5 7 -19 21 -16 19 4 0 9 10 23 24 30 14 7 22 13 18 13 -4 0 15
23 42 50 28 28 50 59 50 70 0 13 7 20 20 20 11 0 20 7 20 15 0 8 9 20 21 27
18 12 69 105 69 128 0 14 -16 12 -29 -4 -14 -16 -127 -52 -196 -61 -27 -4 -58
-14 -68 -23 -15 -13 -22 -14 -37 -4 -33 20 -55 14 -67 -18 -8 -22 -16 -28 -28
-24 -8 4 -23 0 -33 -8 -23 -20 -53 -32 -74 -29 -9 1 -22 -8 -28 -20 -10 -19
-18 -21 -56 -15 -24 3 -46 1 -49 -4 -3 -6 -16 -10 -29 -10 -12 0 -26 -3 -30
-7 -4 -4 -19 -9 -34 -10 -21 -3 -24 -1 -12 7 11 7 11 10 2 10 -7 0 -15 -7 -18
-15 -7 -17 -41 -31 -84 -34 -11 0 -20 -7 -20 -15 0 -8 -19 -18 -45 -25 -35 -9
-45 -16 -45 -32 0 -12 -5 -19 -12 -17 -7 3 -24 -1 -37 -8 -14 -7 -29 -10 -34
-7 -5 3 -16 -5 -24 -17 -11 -16 -18 -19 -26 -11 -15 15 -27 14 -27 -4 0 -8
-11 -22 -24 -30 -20 -14 -31 -14 -66 -5 -23 6 -45 9 -48 6 -3 -3 0 -6 6 -6 7
0 12 -5 12 -10 0 -7 -17 -9 -44 -6 -30 4 -48 1 -55 -8 -6 -7 -30 -13 -53 -14
-24 0 -79 -10 -123 -21 -44 -11 -94 -21 -112 -21 -17 0 -45 -8 -61 -17 -30
-17 -31 -17 -51 7 l-21 25 -6 -22 c-3 -12 -11 -20 -17 -18 -16 5 -215 18 -249
16 -16 -1 -28 3 -28 7 0 5 -29 8 -65 6 -36 -2 -65 1 -65 6 0 11 -123 7 -130
-4 -3 -4 15 -16 40 -26 91 -35 160 -69 160 -79 0 -30 238 -40 464 -20 65 5
120 8 123 6 4 -4 -39 -89 -56 -111 -4 -6 -17 -36 -29 -66 -21 -56 -75 -165
-105 -211 -20 -29 -148 -81 -249 -99 -62 -12 -296 -92 -393 -134 -33 -15 -70
-38 -83 -51 -13 -15 -34 -25 -49 -25 -46 0 -177 -41 -203 -63 -14 -12 -35 -28
-47 -35 -19 -10 -23 -10 -23 3 0 8 -2 15 -5 15 -7 0 -47 -41 -43 -45 1 -1 44
1 95 5 50 4 106 5 125 1 25 -6 8 -9 -69 -14 -107 -7 -204 -26 -242 -47 -19
-10 -23 -9 -19 2 2 7 18 20 36 29 17 9 29 19 25 23 -12 12 -48 6 -81 -14 -18
-11 -47 -20 -65 -20 -31 0 -146 -39 -118 -40 31 -1 -2 -14 -52 -21 -28 -3
-126 -33 -216 -65 -130 -46 -180 -69 -235 -109 -50 -35 -71 -57 -72 -73 -1
-12 -25 -47 -55 -78 -30 -31 -76 -79 -102 -107 -27 -28 -56 -65 -64 -81 -9
-17 -38 -64 -66 -104 -28 -40 -56 -94 -63 -120 -7 -26 -20 -72 -29 -102 -9
-30 -18 -66 -19 -80 -2 -14 -4 -29 -5 -33 0 -5 -5 -5 -11 -2 -9 6 -7 58 5 120
10 51 -6 61 -56 37 -75 -37 -125 -75 -187 -142 -105 -116 -143 -224 -140 -410
2 -117 -9 -185 -42 -275 -11 -27 -24 -72 -30 -100 -15 -66 -26 -97 -64 -177
-32 -70 -54 -90 -68 -64 -18 33 -41 46 -79 46 -21 0 -39 4 -39 9 0 9 -33 1
-90 -22 -14 -5 -66 -20 -117 -32 -105 -27 -124 -36 -174 -80 -40 -36 -119 -69
-191 -79 -43 -7 -47 -9 -46 -35 1 -22 8 -30 33 -40 17 -6 42 -11 54 -11 12 0
32 -5 44 -11 12 -7 46 -11 75 -10 32 1 63 -4 76 -12 32 -21 95 -30 112 -16 8
6 17 10 19 7 10 -9 -60 -163 -81 -180 -29 -23 -84 -107 -84 -128 0 -19 -44
-61 -114 -111 -84 -59 -200 -182 -260 -274 -21 -33 -47 -66 -57 -73 -11 -7
-19 -18 -19 -24 0 -13 -75 -115 -103 -141 -12 -10 -21 -33 -22 -58 -3 -37 -22
-95 -45 -139 -5 -8 -13 -14 -19 -12 -6 1 -11 -4 -11 -12 0 -8 -3 -16 -7 -18
-5 -1 -18 -21 -30 -42 -22 -41 -72 -74 -59 -39 4 10 4 15 1 11 -10 -9 -51 15
-98 58 -23 22 -43 38 -44 36 -2 -1 -14 0 -28 4 -33 8 -95 -4 -92 -18 1 -6 -46
-23 -108 -39 -87 -23 -116 -35 -140 -59 l-30 -30 74 0 c58 0 79 -4 104 -22 45
-30 57 -47 57 -82 1 -56 35 -81 127 -95 46 -8 98 -10 116 -7 57 11 77 -14 84
-105 4 -60 2 -82 -12 -109 -31 -60 -96 -152 -162 -228 -35 -40 -63 -80 -63
-88 0 -8 -13 -26 -29 -40 -16 -13 -67 -74 -112 -134 -53 -70 -94 -114 -113
-122 -34 -14 -89 -16 -127 -6 -21 6 -28 3 -36 -15 -5 -12 -24 -51 -41 -87 -18
-36 -32 -69 -32 -75 0 -5 33 -18 73 -28 39 -10 78 -24 86 -32 20 -20 16 -242
-5 -299 -9 -23 -20 -60 -24 -83 -5 -24 -16 -66 -24 -95 -8 -29 -24 -102 -36
-163 -34 -182 -73 -339 -87 -356 -10 -11 -12 -28 -8 -51 5 -25 2 -39 -9 -51
-11 -11 -14 -25 -10 -46 6 -27 4 -30 -11 -25 -16 6 -17 3 -12 -25 l7 -33 -20
23 -20 24 10 -28 c13 -37 14 -34 -15 -35 -33 0 -55 -19 -55 -49 0 -14 -4 -21
-10 -18 -6 4 -10 -8 -10 -28 0 -30 -3 -34 -23 -30 -12 3 -45 -7 -72 -20 -78
-38 -115 -41 -200 -16 -65 20 -76 27 -87 53 -6 17 -13 34 -15 38 -2 3 4 8 14
11 17 4 17 5 1 6 -10 0 -18 5 -18 10 0 9 88 20 96 12 8 -8 64 -6 64 2 0 5 20
5 44 2 39 -6 46 -4 56 15 13 24 4 120 -11 120 -19 0 -60 56 -58 80 3 52 -13
91 -48 115 -30 20 -43 22 -96 18 -49 -4 -67 -10 -84 -29 -12 -13 -28 -24 -34
-24 -7 0 -9 -3 -6 -7 9 -9 -43 -43 -65 -43 -10 0 -18 -4 -18 -10 0 -5 -8 -10
-17 -10 -10 0 -26 -7 -36 -14 -16 -13 -16 -15 3 -39 11 -14 20 -35 20 -46 0
-14 6 -21 19 -21 10 0 34 -7 54 -15 19 -8 38 -11 41 -7 4 3 4 -1 0 -11 -4 -12
-1 -17 10 -17 21 0 59 -38 51 -51 -4 -5 -2 -16 4 -23 9 -11 3 -17 -26 -31 -42
-20 -63 -41 -100 -98 -23 -36 -27 -39 -60 -32 -20 3 -56 8 -79 10 -24 2 -49 7
-56 12 -7 4 -38 14 -68 21 -30 7 -65 15 -77 18 -17 5 -23 2 -23 -9 0 -19 -57
-41 -64 -24 -2 7 -5 -3 -5 -20 -1 -32 -30 -73 -51 -73 -6 0 -16 -5 -23 -10
-66 -56 -64 -55 -87 -40 -13 8 -13 10 -1 10 8 0 -3 16 -24 35 -22 19 -42 31
-45 27 -3 -4 -20 -8 -37 -10 -31 -2 -33 0 -34 30 -1 30 -2 31 -8 8 -6 -25 -31
-40 -31 -19 0 7 -11 9 -27 6 -29 -6 -103 11 -103 23 0 6 -160 4 -230 -3 -17
-1 -26 4 -28 17 -3 14 0 17 13 13 9 -4 14 -3 10 3 -3 6 -14 10 -24 10 -17 0
-40 45 -51 100 -11 54 -99 22 -103 -37 -1 -18 3 -27 11 -25 6 1 11 -1 10 -5 0
-5 2 -16 7 -27 5 -12 3 -21 -6 -27 -11 -7 -11 -9 2 -9 10 0 19 -11 22 -27 8
-35 -27 -69 -78 -79 -19 -3 -35 -10 -35 -16 0 -5 -4 -7 -9 -4 -5 3 -15 -1 -22
-10 -11 -14 -10 -18 6 -30 11 -8 23 -10 29 -5 10 8 64 15 90 12 5 -1 3 -8 -4
-16 -10 -13 -9 -15 9 -15 11 0 23 1 25 3 3 1 15 -8 28 -20 13 -11 32 -23 43
-25 11 -2 21 -11 23 -20 2 -12 -5 -17 -30 -20 -18 -2 -33 -8 -33 -15 0 -6 -3
-15 -7 -19 -5 -4 -8 -14 -8 -23 -1 -16 -80 -81 -100 -81 -5 0 -10 -4 -10 -8 0
-4 -25 -16 -55 -27 -30 -10 -55 -21 -55 -24 0 -17 -142 -77 -158 -67 -4 2 -25
-4 -47 -14 -22 -11 -47 -19 -55 -20 -9 0 -20 -4 -25 -9 -6 -5 -26 -14 -46 -20
-28 -9 -44 -8 -78 4 -68 24 -71 22 -65 -32 8 -62 43 -123 94 -163 55 -44 71
-86 68 -181 -3 -73 -2 -78 25 -103 28 -26 47 -26 77 0 38 32 92 44 203 46
l112 2 50 -35 c28 -19 54 -45 60 -57 5 -12 13 -22 17 -22 3 0 0 -13 -8 -29
-12 -23 -23 -30 -59 -35 -33 -5 -51 -3 -67 8 -38 27 -140 15 -146 -16 -2 -10
6 -30 17 -45 21 -28 23 -28 114 -25 107 3 187 8 273 17 45 5 68 3 90 -8 29
-15 78 -13 100 4 9 8 95 28 129 32 6 0 29 -3 52 -7 37 -7 41 -11 45 -41 2 -19
-1 -40 -7 -49 -18 -24 -134 -72 -194 -80 -43 -6 -64 -15 -93 -42 -43 -39 -65
-42 -95 -15 -38 36 -88 31 -102 -10 -15 -44 -14 -76 5 -105 17 -26 22 -117 9
-175 -6 -28 -5 -29 28 -29 l35 0 -5 80 c-5 69 -3 83 13 101 10 11 19 28 19 37
0 9 7 17 15 17 8 1 14 6 13 12 -1 6 4 14 12 17 9 3 15 -1 15 -10 0 -8 7 -17
15 -20 8 -3 17 -14 20 -25 8 -23 64 -51 96 -48 62 6 72 1 65 -31 -3 -17 -2
-29 3 -26 4 3 16 -3 26 -14 26 -28 55 -25 94 11 20 17 50 33 70 36 20 3 47 11
61 18 22 11 28 10 48 -5 19 -16 22 -28 22 -84 l0 -66 108 0 c107 0 109 0 120
25 20 43 14 62 -31 109 -41 44 -45 46 -99 46 -40 0 -62 5 -74 17 -23 24 -44
76 -44 113 0 39 46 109 77 116 33 9 109 -3 146 -21 42 -21 70 -19 133 10 40
19 60 23 73 15 10 -5 35 -10 55 -12 32 -2 40 -8 63 -47 l27 -46 14 65 c14 66
39 99 73 100 9 0 22 7 29 15 7 9 19 14 26 11 7 -3 35 -1 62 3 36 5 54 4 68 -6
26 -19 58 -17 50 3 -5 13 -1 13 26 -3 40 -23 40 -56 2 -91 -34 -30 -41 -82
-19 -132 10 -22 21 -40 25 -40 3 0 26 9 50 21 65 31 113 21 166 -36 46 -51 60
-55 70 -23 4 12 35 50 70 84 40 40 58 64 50 67 -7 3 -19 1 -27 -3 -36 -23 -50
87 -24 195 l14 60 -27 27 c-33 33 -103 52 -187 49 -166 -5 -285 -2 -324 9 -58
15 -158 16 -201 1 -22 -7 -48 -29 -69 -56 -27 -37 -39 -45 -65 -45 -17 0 -40
7 -50 15 -11 8 -28 15 -38 15 -10 0 -18 5 -18 10 0 6 -7 10 -15 10 -8 0 -15 6
-15 14 0 7 -11 21 -25 30 -16 11 -25 26 -25 42 0 22 4 26 23 22 29 -6 112 32
112 51 0 23 -46 50 -102 60 -28 6 -84 28 -125 49 -100 54 -164 63 -298 43 -41
-6 -96 -18 -121 -26 -40 -14 -48 -21 -67 -65 -12 -28 -22 -56 -22 -64 0 -21
-23 -33 -49 -27 -31 8 -58 90 -42 130 6 14 13 49 17 76 11 89 21 101 249 311
53 49 101 64 205 64 103 0 326 -22 402 -39 89 -20 331 -12 453 16 96 22 188
27 216 13 25 -14 164 -50 192 -50 9 0 50 -34 90 -77 143 -152 215 -219 265
-252 29 -18 52 -37 52 -41 0 -10 159 -168 190 -188 34 -23 190 -164 259 -235
121 -126 203 -207 238 -234 l35 -29 -17 -75 c-9 -40 -19 -95 -22 -122 l-5 -47
1501 0 c905 0 1501 4 1501 9 0 5 -16 19 -36 32 -34 21 -43 22 -158 15 -66 -3
-159 -12 -206 -20 -56 -9 -152 -12 -285 -10 -304 5 -518 28 -611 66 -42 17
-56 29 -73 63 -25 51 -26 85 -4 145 17 47 109 180 124 180 5 0 23 -14 41 -30
17 -17 41 -33 54 -36 22 -6 76 17 102 43 8 7 33 23 55 35 23 11 64 38 92 59
63 47 224 149 236 149 5 0 9 -7 9 -15 0 -16 44 -38 110 -55 25 -7 57 -21 71
-31 15 -10 32 -19 38 -19 6 0 15 -9 21 -20 6 -11 22 -23 35 -26 14 -3 25 -10
25 -15 0 -5 7 -9 16 -9 8 0 13 -4 10 -8 -2 -4 14 -14 38 -21 23 -7 54 -22 67
-34 34 -30 44 -36 201 -113 149 -74 184 -105 207 -189 16 -58 14 -69 -19 -101
-16 -16 -30 -32 -30 -36 0 -5 1034 -8 2298 -8 l2298 0 13 35 c19 54 49 68 149
70 95 2 172 25 270 83 28 17 52 28 52 24 0 -4 10 -12 23 -17 12 -6 61 -32 109
-58 48 -26 94 -47 102 -47 31 0 16 36 -26 63 -23 14 -50 39 -60 54 -18 28 -18
28 -135 28 -96 0 -123 3 -143 18 -32 22 -132 24 -150 2 -7 -8 -18 -15 -24 -15
-6 0 -23 -6 -37 -14 -15 -7 -61 -17 -103 -21 -42 -3 -76 -11 -76 -16 0 -5 -7
-9 -16 -9 -14 0 -15 9 -10 68 4 37 16 90 26 117 10 28 24 70 31 95 9 30 30 61
61 93 38 38 48 55 48 80 0 18 -5 38 -12 45 -9 9 -7 17 10 35 17 18 22 36 22
78 0 67 5 74 56 88 52 14 60 32 29 70 -22 26 -24 33 -16 72 6 24 16 64 24 89
20 59 44 147 52 185 3 17 21 47 39 69 57 65 63 82 38 109 -32 34 -28 92 23
302 14 55 32 140 40 189 9 48 20 98 26 110 7 11 46 55 88 97 88 88 121 125
121 139 0 6 6 10 13 10 7 0 4 7 -7 15 -17 13 -17 15 -3 21 31 12 17 22 -22 17
-46 -6 -96 13 -110 42 -5 11 -15 42 -21 68 -12 43 -29 71 -98 162 -76 100
-115 171 -119 214 -4 45 -3 48 56 109 34 34 65 62 70 62 6 0 13 9 16 21 7 22
-28 69 -52 69 -7 0 -13 5 -13 10 0 6 -11 15 -25 20 -38 14 -40 35 -12 108 21
54 25 82 24 141 -2 56 1 79 14 95 15 20 59 146 59 172 0 16 57 124 77 147 9 9
20 44 24 77 5 32 18 74 29 92 11 18 20 41 20 51 0 10 6 28 14 40 8 12 17 39
20 60 5 24 19 48 41 68 29 26 34 39 38 87 4 52 30 141 55 188 30 55 81 174 88
199 8 34 66 150 88 179 14 17 20 18 58 7 24 -6 115 -13 203 -16 88 -2 167 -5
175 -7 8 -1 38 2 66 6 l51 8 -4 107 c-5 127 -6 141 -11 136 -3 -2 -13 7 -24
20 -11 14 -28 25 -39 25 -10 0 -20 5 -20 10 -1 6 -2 13 -3 18 0 4 -11 20 -23
35 -21 27 -24 28 -74 19 -32 -6 -62 -6 -77 -1 -13 5 -39 9 -58 9 -25 0 -34 5
-36 18 -3 38 5 78 20 107 23 41 25 400 3 455 -9 24 -15 86 -16 195 -2 173 -12
221 -91 463 -40 124 -121 247 -235 359 -78 76 -84 83 -155 178 -37 50 -82 109
-122 160 -4 6 -11 18 -15 28 -5 13 -13 16 -32 11 -31 -8 -34 14 -5 39 11 9 20
22 20 29 0 10 -2 10 -9 0 -6 -10 -17 0 -39 37 -17 28 -50 62 -72 77 -34 23
-51 44 -36 44 8 0 101 -51 110 -61 14 -13 38 -11 73 6 22 11 37 13 54 6 13 -5
18 -10 12 -10 -19 -1 -16 -31 2 -31 9 0 18 7 21 15 4 9 19 15 39 15 35 0 55
26 39 51 -4 7 1 18 10 24 15 12 14 15 -16 40 -55 47 -95 58 -193 58 -148 -1
-243 -7 -238 -17 3 -5 23 -24 45 -44 21 -19 36 -37 34 -40 -3 -2 -30 7 -60 22
-36 18 -93 64 -165 134 -207 203 -256 248 -274 255 -9 4 -20 15 -24 24 -6 17
-14 27 -83 102 -17 19 -45 54 -62 77 -17 24 -36 45 -43 48 -7 2 -18 21 -25 40
-8 25 -19 38 -36 42 -13 3 -21 10 -18 15 11 19 -114 133 -230 209 -99 66 -122
78 -135 67 -12 -10 -14 -9 -9 5 4 9 0 24 -7 35 -8 10 -15 35 -15 56 0 51 -25
170 -55 262 -28 85 -29 88 -16 81 5 -4 16 -3 25 0 18 7 22 39 6 49 -5 3 -10
-1 -10 -9 0 -46 -23 -22 -195 204 -112 147 -113 149 -134 250 -10 52 -25 111
-34 131 -16 39 -85 139 -95 139 -4 0 -7 -60 -8 -132z m-2640 -1143 c-9 -14
-21 -25 -26 -25 -5 0 -29 -16 -52 -35 -24 -19 -48 -35 -55 -35 -6 0 -11 -4
-11 -9 0 -5 -7 -12 -16 -15 -26 -10 -5 12 59 61 34 26 71 55 81 65 28 26 39
22 20 -7z m-199 -145 c-3 -5 -11 -10 -16 -10 -6 0 -7 5 -4 10 3 6 11 10 16 10
6 0 7 -4 4 -10z m131 -17 c-10 -10 -19 5 -10 18 6 11 8 11 12 0 2 -7 1 -15 -2
-18z m-176 -7 c0 -6 -111 -86 -120 -86 -6 0 -10 -4 -10 -10 0 -5 -11 -12 -25
-16 -14 -3 -25 -10 -25 -14 0 -10 -121 -82 -127 -76 -9 9 155 125 261 184 42
23 46 24 46 18z m3340 -95 c0 -6 -4 -13 -10 -16 -5 -3 -10 1 -10 9 0 9 5 16
10 16 6 0 10 -4 10 -9z m-4285 -61 c3 -5 -2 -10 -12 -11 -10 0 -30 -3 -45 -5
-34 -6 -37 3 -5 16 30 12 55 12 62 0z m610 -72 c-11 -7 -26 -18 -33 -25 -7 -7
-18 -13 -25 -13 -6 0 4 11 23 25 19 14 39 25 44 25 6 0 2 -6 -9 -12z m3559
-122 c-6 -15 -24 -23 -24 -11 0 8 24 34 28 30 1 -1 0 -10 -4 -19z m-4709 -16
c3 -5 2 -10 -4 -10 -5 0 -13 5 -16 10 -3 6 -2 10 4 10 5 0 13 -4 16 -10z m955
0 c0 -5 -5 -10 -10 -10 -14 0 -88 -49 -128 -85 -19 -16 -41 -34 -50 -38 -14
-7 -14 -6 1 6 9 8 17 17 17 21 0 11 59 59 109 88 51 30 61 33 61 18z m-240
-173 c-14 -13 -46 -37 -71 -55 -26 -17 -62 -50 -79 -72 -18 -23 -38 -39 -46
-36 -20 8 -110 -71 -106 -93 2 -14 -3 -17 -28 -13 -24 3 -41 -4 -77 -32 -46
-36 -78 -47 -71 -23 8 22 88 76 131 88 30 8 61 29 109 77 37 36 107 92 155
123 92 61 125 75 83 36z m-482 -396 c-2 -7 -15 -15 -30 -17 -23 -2 -28 1 -28
18 0 11 8 27 18 34 14 11 19 10 30 -4 7 -9 11 -23 10 -31z m232 -146 c13 -16
8 -18 -27 -9 -13 4 -23 10 -23 15 0 15 37 10 50 -6z m-1030 -135 c0 -5 -5 -10
-11 -10 -5 0 -7 5 -4 10 3 6 8 10 11 10 2 0 4 -4 4 -10z m1578 -72 c-2 -6 -10
-14 -16 -16 -7 -2 -10 2 -6 12 7 18 28 22 22 4z m22 -62 c0 -3 -4 -8 -10 -11
-5 -3 -10 -1 -10 4 0 6 5 11 10 11 6 0 10 -2 10 -4z m-26 -61 c-4 -17 -10 -23
-16 -17 -6 6 -6 18 2 32 6 12 14 20 16 17 3 -3 2 -17 -2 -32z m3115 -7 c-7
-12 -15 -58 -18 -102 -5 -67 -9 -80 -24 -82 -15 -2 -18 2 -13 19 2 12 10 54
17 92 11 69 23 95 41 95 5 0 3 -10 -3 -22z m61 -3 c0 -8 -4 -15 -10 -15 -5 0
-10 7 -10 15 0 8 5 15 10 15 6 0 10 -7 10 -15z m-3136 -10 c-6 -16 -24 -21
-24 -7 0 11 11 22 21 22 5 0 6 -7 3 -15z m216 -39 c0 -8 -15 -25 -32 -37 -18
-13 -27 -16 -20 -7 7 8 10 22 6 31 -3 10 1 17 13 20 31 8 33 7 33 -7z m-105
-62 c-1 -31 -8 -61 -15 -67 -10 -9 -12 -8 -7 5 9 25 -18 12 -30 -15 -11 -23
-80 -102 -150 -173 -24 -23 -43 -45 -43 -48 0 -10 32 10 62 38 15 14 34 26 42
26 8 0 25 18 37 40 13 22 28 40 35 40 7 0 19 2 27 5 11 5 13 -2 8 -32 -5 -32
-10 -38 -31 -38 -30 0 -83 -52 -76 -72 4 -10 1 -13 -12 -9 -19 7 -51 -32 -34
-43 17 -11 1 -75 -23 -94 -23 -17 -25 -16 -49 7 -14 13 -26 28 -26 35 0 13
-17 15 -25 1 -14 -23 -65 18 -65 53 0 16 5 18 28 14 25 -5 36 2 84 51 118 121
208 236 208 264 0 18 6 29 20 33 11 3 19 9 19 13 -2 14 1 22 10 22 5 0 8 -25
6 -56z m-137 0 c-13 -25 -24 -40 -26 -35 -3 10 35 81 44 81 2 0 -6 -21 -18
-46z m4946 31 c3 -8 1 -15 -3 -15 -5 0 -11 7 -15 15 -3 8 -1 15 3 15 5 0 11
-7 15 -15z m-4724 -45 c-6 -12 -14 -19 -17 -17 -2 3 1 15 7 27 6 12 14 19 17
17 2 -3 -1 -15 -7 -27z m134 1 c3 -5 15 -7 26 -4 14 4 21 -1 26 -21 3 -15 4
-29 1 -32 -9 -10 -57 8 -57 22 0 8 -7 14 -15 14 -9 0 -12 6 -9 15 7 17 20 20
28 6z m4797 -39 c64 -23 119 -50 119 -58 0 -4 -8 -3 -17 1 -10 4 -61 18 -113
31 -113 29 -281 33 -370 9 -64 -17 -70 -18 -70 -7 0 13 64 41 105 46 95 10
290 -3 346 -22z m-4871 -10 c0 -13 -12 -22 -22 -16 -10 6 -1 24 13 24 5 0 9
-4 9 -8z m2715 -2 c-3 -5 -15 -10 -26 -10 -11 0 -17 5 -14 10 3 6 15 10 26 10
11 0 17 -4 14 -10z m120 0 c3 -5 1 -10 -4 -10 -6 0 -11 5 -11 10 0 6 2 10 4
10 3 0 8 -4 11 -10z m1484 -25 c2 -3 0 -10 -6 -16 -16 -16 -63 -2 -63 17 0 13
7 15 32 10 17 -3 34 -8 37 -11z m77 0 c-22 -17 -52 -20 -60 -6 -8 12 11 19 49
20 29 0 29 0 11 -14z m-186 -25 c0 -12 -33 -30 -55 -30 -24 0 -12 23 16 31 35
10 39 10 39 -1z m830 -15 c17 -9 30 -18 30 -21 0 -4 -59 23 -69 32 -10 9 13 3
39 -11z m-5409 -32 c-16 -21 -39 -59 -51 -85 -21 -45 -41 -63 -39 -35 1 25 91
157 107 157 8 0 1 -15 -17 -37z m299 -2 c-16 -31 -32 -36 -18 -7 6 14 15 26
20 26 5 0 4 -9 -2 -19z m1517 -43 c-3 -8 -6 -5 -6 6 -1 11 2 17 5 13 3 -3 4
-12 1 -19z m3743 -30 c0 -6 -6 -5 -15 2 -8 7 -15 14 -15 16 0 2 7 1 15 -2 8
-4 15 -11 15 -16z m-6949 -139 c25 -13 15 -29 -17 -29 -14 0 -27 -7 -30 -15
-7 -17 -34 -21 -34 -5 0 19 32 60 47 60 8 0 23 -5 34 -11z m3249 -83 c0 -15
-3 -16 -15 -6 -8 7 -15 27 -15 44 l1 31 14 -25 c8 -14 14 -33 15 -44z m-100
-176 c0 -5 -5 -10 -11 -10 -5 0 -7 5 -4 10 3 6 8 10 11 10 2 0 4 -4 4 -10z
m-3876 -89 c14 -23 -9 -41 -73 -55 -94 -22 -135 -40 -151 -71 -17 -31 -50 -53
-50 -32 0 35 111 117 160 117 10 0 25 7 33 15 8 8 17 11 21 8 3 -3 8 2 12 11
7 17 39 22 48 7z m3706 -135 c-32 -47 -37 -50 -80 -36 l-25 8 25 1 c16 1 39
17 65 47 48 56 58 44 15 -20z m-3918 -28 c-7 -7 -12 -8 -12 -2 0 14 12 26 19
19 2 -3 -1 -11 -7 -17z m179 -35 c-8 -15 -10 -15 -11 -2 0 17 10 32 18 25 2
-3 -1 -13 -7 -23z m866 -315 c-3 -8 -6 -5 -6 6 -1 11 2 17 5 13 3 -3 4 -12 1
-19z m-444 -88 c-3 -11 -9 -17 -14 -15 -10 7 -1 35 11 35 5 0 6 -9 3 -20z
m-24 -245 c0 -5 -8 1 -19 15 -21 26 -24 47 -13 76 4 12 10 3 19 -32 7 -27 13
-53 13 -59z m1565 -215 c-12 -12 -74 -31 -74 -23 0 3 8 12 18 19 20 16 71 19
56 4z m666 -315 c0 -36 -13 -47 -24 -19 -5 14 9 54 19 54 3 0 5 -16 5 -35z
m1070 -499 c-1 -20 -2 -20 -15 4 -19 33 -19 46 0 30 8 -7 15 -22 15 -34z
m-1253 -158 c-3 -8 -6 -5 -6 6 -1 11 2 17 5 13 3 -3 4 -12 1 -19z m-3679 -190
c-5 -13 -105 -29 -122 -20 -5 3 -1 11 9 19 25 17 118 18 113 1z m2179 -120
c95 -31 173 -78 260 -158 49 -44 48 -49 -7 -70 -57 -22 -158 -84 -255 -157
-91 -69 -177 -172 -226 -270 -11 -24 -25 -45 -30 -48 -5 -4 -16 -32 -25 -63
-9 -31 -20 -61 -24 -67 -19 -25 -63 -168 -86 -283 -27 -133 -30 -142 -45 -142
-5 0 -68 29 -141 65 -72 36 -137 64 -142 62 -11 -4 58 -78 99 -108 31 -22 46
-55 36 -81 -4 -13 -6 -29 -4 -36 7 -20 -44 -62 -75 -62 -38 0 -86 32 -123 82
-46 62 -129 244 -141 308 -5 30 -19 73 -31 95 -15 30 -21 65 -25 142 -4 99 -4
104 39 223 49 141 88 205 204 340 179 208 221 230 500 258 101 10 128 7 242
-30z m3463 -191 c0 -7 -9 -18 -20 -25 -16 -10 -20 -10 -20 1 0 14 20 37 32 37
4 0 8 -6 8 -13z m-290 -417 c0 -5 -4 -10 -10 -10 -5 0 -10 5 -10 10 0 6 5 10
10 10 6 0 10 -4 10 -10z m-6130 -1160 c0 -5 -2 -10 -4 -10 -3 0 -8 5 -11 10
-3 6 -1 10 4 10 6 0 11 -4 11 -10z m2541 -163 c-13 -13 -26 -3 -16 12 3 6 11
8 17 5 6 -4 6 -10 -1 -17z m129 -147 c0 -11 -6 -20 -13 -20 -8 0 -19 -10 -24
-22 -11 -23 -11 -23 -18 5 -8 32 8 57 36 57 12 0 19 -7 19 -20z m-4383 -75
c-4 -8 -11 -15 -17 -15 -7 0 -7 6 0 21 13 23 26 19 17 -6z m4438 -393 c0 -46
-19 -44 -23 2 -3 28 0 37 10 34 7 -3 13 -19 13 -36z m73 -13 c-2 -6 -8 -10
-13 -10 -5 0 -11 4 -13 10 -2 6 4 11 13 11 9 0 15 -5 13 -11z"/>
<path d="M7663 9293 c-7 -3 -13 -9 -13 -14 0 -13 48 -42 59 -35 13 9 2 36 -14
36 -7 0 -15 4 -17 9 -1 4 -9 6 -15 4z"/>
<path d="M8656 9230 c-62 -8 -143 -32 -206 -63 -14 -7 -26 -22 -28 -33 -2 -16
5 -23 38 -33 22 -6 44 -10 49 -7 4 3 24 1 44 -5 25 -7 55 -6 99 2 82 15 102
15 167 -4 51 -15 56 -15 94 4 25 13 49 18 66 15 l26 -6 -25 19 c-54 43 -80 66
-80 74 0 5 -8 16 -17 25 -19 20 -120 25 -227 12z"/>
<path d="M10226 9211 c-4 -7 -5 -15 -2 -18 9 -9 19 4 14 18 -4 11 -6 11 -12 0z"/>
<path d="M10190 9170 c0 -5 7 -10 16 -10 8 0 12 5 9 10 -3 6 -10 10 -16 10 -5
0 -9 -4 -9 -10z"/>
<path d="M9881 8455 c-1 -43 -8 -136 -16 -205 -14 -113 -14 -129 0 -156 9 -18
15 -56 15 -102 0 -40 7 -117 15 -170 8 -53 17 -124 21 -157 9 -93 24 -46 36
123 10 133 9 165 -12 337 -12 105 -26 226 -32 270 -15 130 -26 154 -27 60z"/>
<path d="M17760 7590 c0 -17 7 -20 40 -20 22 0 40 5 40 10 0 6 -11 10 -25 10
-14 0 -25 5 -25 10 0 6 -7 10 -15 10 -8 0 -15 -9 -15 -20z"/>
<path d="M9970 7584 c0 -8 5 -12 10 -9 6 4 8 11 5 16 -9 14 -15 11 -15 -7z"/>
<path d="M17630 7416 c0 -9 7 -16 16 -16 17 0 14 22 -4 28 -7 2 -12 -3 -12
-12z"/>
<path d="M5316 7119 c-22 -5 -45 -14 -53 -20 -19 -16 -16 -63 5 -90 18 -22 21
-22 91 -10 86 14 129 34 140 64 12 31 -2 44 -60 56 -57 13 -69 12 -123 0z"/>
<path d="M6020 7126 c0 -2 7 -6 15 -10 8 -3 15 -1 15 4 0 6 -7 10 -15 10 -8 0
-15 -2 -15 -4z"/>
<path d="M15340 7008 c-91 -39 -110 -61 -110 -129 0 -22 6 -30 25 -35 26 -6
99 15 142 42 25 16 77 110 65 117 -19 11 -100 15 -122 5z"/>
<path d="M16468 7014 c-3 -3 -4 -14 -1 -25 4 -15 14 -19 44 -19 43 0 48 9 21
33 -18 17 -53 23 -64 11z"/>
<path d="M17658 6943 c-32 -41 -34 -55 -14 -72 16 -14 64 -5 84 16 7 7 24 13
36 13 13 0 29 7 36 15 14 17 40 20 40 4 0 -5 5 -7 10 -4 19 12 -11 35 -45 35
-18 0 -46 7 -61 15 -42 22 -56 18 -86 -22z"/>
<path d="M17987 6955 c-9 -13 -24 -22 -31 -19 -8 3 -16 1 -20 -4 -9 -15 5 -52
21 -52 8 0 24 -10 36 -23 34 -36 98 -50 163 -37 30 6 54 16 54 21 0 5 -19 22
-42 39 -24 16 -52 36 -63 45 -36 28 -80 55 -90 55 -5 -1 -18 -12 -28 -25z"/>
<path d="M17880 6910 c20 -13 40 -13 40 0 0 6 -12 10 -27 10 -22 0 -25 -2 -13
-10z"/>
<path d="M17220 6770 c0 -11 4 -20 9 -20 13 0 32 26 24 33 -13 14 -33 6 -33
-13z"/>
<path d="M19068 6632 c-15 -9 -32 -26 -39 -38 -6 -12 -21 -25 -33 -29 -19 -6
-18 -8 12 -21 22 -10 38 -11 50 -4 9 5 41 19 70 31 28 12 52 25 52 30 0 13
-51 49 -69 48 -9 0 -28 -8 -43 -17z"/>
<path d="M16910 6420 c-8 -5 -28 -10 -45 -10 -34 -1 -65 -20 -65 -42 0 -8 8
-32 19 -54 10 -21 22 -58 26 -80 6 -37 10 -43 38 -49 29 -7 148 -13 257 -14
45 0 134 24 158 42 24 19 14 62 -23 95 -19 18 -37 43 -41 56 -6 25 -34 45 -34
24 0 -6 -6 -5 -16 3 -10 8 -38 15 -63 16 -25 1 -47 7 -49 13 -5 13 -142 13
-162 0z"/>
<path d="M17515 6350 c-3 -5 -14 -10 -24 -10 -10 0 -24 -11 -31 -25 -7 -14
-19 -25 -27 -25 -16 0 -17 -27 0 -44 19 -19 76 -36 121 -36 38 0 41 2 43 27 0
16 -2 30 -7 33 -4 3 -17 24 -29 48 -21 42 -34 51 -46 32z"/>
<path d="M17743 6088 c-30 -15 -29 -19 13 -47 28 -20 40 -23 61 -15 38 13 38
29 0 53 -38 24 -43 24 -74 9z"/>
<path d="M15060 5967 c0 -12 9 -28 20 -34 16 -11 25 -9 55 8 53 32 46 49 -20
49 -50 0 -55 -2 -55 -23z"/>
<path d="M15890 5919 c0 -5 17 -17 38 -27 20 -9 39 -20 40 -25 2 -4 8 -4 13
-1 6 3 16 0 24 -6 9 -7 26 -9 45 -5 26 6 29 9 19 22 -22 26 -72 45 -126 48
-29 2 -53 -1 -53 -6z"/>
<path d="M15520 5895 c0 -8 -5 -15 -10 -15 -12 0 -100 -81 -100 -92 0 -16 -53
-88 -65 -88 -6 0 -20 -9 -30 -20 -10 -11 -24 -20 -32 -20 -7 0 -18 -11 -24
-24 -6 -13 -21 -28 -34 -34 -27 -12 -27 -41 -2 -67 16 -15 39 -19 135 -22 165
-6 172 -5 196 10 18 12 70 29 231 77 17 5 49 14 73 20 30 8 42 16 40 26 -3 17
-98 54 -139 54 -15 0 -32 7 -39 15 -7 8 -16 15 -21 15 -5 0 -17 8 -27 18 -14
14 -18 33 -17 82 1 36 -3 68 -9 72 -6 4 -37 8 -68 8 -45 0 -58 -3 -58 -15z"/>
<path d="M19008 5838 c-23 -19 -27 -40 -11 -70 10 -21 21 -28 42 -28 38 0 101
27 101 43 -1 13 -83 67 -104 67 -7 0 -19 -6 -28 -12z"/>
<path d="M16232 5798 c-7 -7 -12 -19 -12 -28 0 -9 -3 -20 -7 -24 -5 -4 -8 -32
-8 -61 0 -49 2 -54 30 -68 56 -27 170 -57 216 -57 46 0 184 42 173 52 -3 4 13
4 35 1 28 -4 41 -2 41 6 0 6 -8 14 -17 17 -37 11 -100 45 -146 78 -26 20 -54
33 -61 30 -8 -3 -17 -1 -21 5 -3 6 -24 11 -46 11 -21 0 -39 4 -39 9 0 5 -22
11 -50 15 -27 4 -52 11 -55 16 -8 13 -18 13 -33 -2z"/>
<path d="M17268 5743 c-23 -6 -23 -33 0 -33 11 0 18 8 19 20 1 11 1 19 0 19
-1 -1 -10 -3 -19 -6z"/>
<path d="M16778 5594 c-8 -8 2 -35 19 -52 7 -7 29 -16 48 -19 33 -5 35 -4 31
18 -3 13 -5 25 -7 27 -1 1 -2 8 -3 15 -1 13 -77 23 -88 11z"/>
<path d="M17179 5440 c-26 -4 -56 -13 -67 -19 -11 -6 -30 -11 -41 -11 -15 0
-19 -4 -14 -17 5 -12 2 -15 -10 -10 -15 6 -16 3 -8 -57 0 -5 8 -3 16 4 8 7 25
10 40 6 14 -4 25 -3 25 1 0 11 94 6 133 -6 18 -6 94 -13 169 -17 136 -6 137
-6 182 20 26 15 47 30 47 34 7 38 4 54 -13 63 -24 13 -398 20 -459 9z"/>
<path d="M4751 5361 c-7 -5 -61 -12 -120 -16 -63 -4 -128 -15 -161 -27 -30
-10 -63 -21 -72 -23 -10 -2 -25 -8 -34 -13 -8 -5 -67 -7 -129 -4 -86 3 -125 0
-162 -12 -26 -8 -73 -18 -103 -21 -88 -10 -100 -14 -100 -34 0 -25 16 -37 70
-51 25 -6 64 -21 88 -32 27 -13 55 -18 75 -15 18 2 44 -2 59 -9 30 -16 78 -4
78 18 1 18 123 78 157 78 39 -1 97 -50 89 -76 -10 -32 -67 -61 -131 -69 -80
-9 -136 -35 -169 -77 -33 -44 -33 -59 2 -95 21 -24 39 -31 83 -36 87 -10 118
5 209 98 42 43 84 55 227 62 114 5 138 4 172 -11 37 -17 42 -17 97 -1 46 13
78 16 149 10 l90 -7 30 34 c17 18 43 50 58 70 27 34 27 38 14 65 -22 40 -56
69 -102 83 -54 16 -154 60 -185 80 -14 9 -44 22 -66 28 -48 14 -193 16 -213 3z"/>
<path d="M16976 5265 c-16 -24 -16 -26 15 -56 40 -39 55 -33 51 22 -4 62 -37
79 -66 34z"/>
<path d="M5523 5188 c-41 -20 -36 -38 39 -120 103 -115 121 -118 169 -33 16
29 48 73 69 98 22 25 40 50 40 56 0 15 -287 14 -317 -1z"/>
<path d="M16138 5172 c-16 -15 -28 -30 -28 -34 0 -9 61 -29 70 -23 4 3 56 -2
115 -10 l107 -15 61 33 c34 19 62 38 64 43 2 5 -45 10 -103 11 -58 1 -122 7
-142 13 -66 18 -114 12 -144 -18z"/>
<path d="M17253 5109 c-20 -20 -16 -36 23 -79 33 -36 64 -52 64 -32 0 4 10 12
22 17 33 14 47 61 25 82 -21 21 -117 30 -134 12z"/>
<path d="M15740 5012 c-89 -30 -120 -45 -125 -63 -9 -29 0 -35 63 -48 32 -6
81 -20 110 -30 56 -21 164 -23 182 -5 22 22 -1 72 -48 106 -90 64 -103 67
-182 40z"/>
<path d="M1755 4906 c-27 -12 -61 -29 -75 -38 -48 -32 -137 -29 -161 6 -4 5
-15 6 -25 1 -18 -7 -17 -8 3 -18 20 -9 21 -11 7 -21 -13 -10 -12 -18 10 -68
27 -61 39 -70 76 -56 30 11 86 2 93 -15 8 -21 1 -54 -14 -70 -7 -9 -20 -23
-27 -32 -7 -8 -22 -15 -32 -15 -11 0 -20 -4 -20 -10 0 -5 -9 -10 -19 -10 -11
0 -23 -5 -26 -11 -4 -5 -17 -15 -28 -20 -29 -13 -62 -32 -78 -46 -8 -6 -41
-19 -74 -29 -72 -21 -317 -26 -356 -8 -98 47 -169 64 -195 46 -6 -4 -25 -29
-44 -57 -35 -53 -104 -133 -207 -242 -41 -44 -63 -77 -68 -100 -3 -18 -10 -31
-16 -28 -5 4 -9 2 -9 -4 0 -5 5 -13 11 -16 5 -4 15 -18 20 -32 7 -19 12 -23
22 -14 13 10 29 11 102 9 17 0 57 7 90 17 43 12 80 16 132 12 39 -3 88 -2 108
3 45 10 102 64 115 110 16 57 45 95 117 153 96 78 170 95 248 58 48 -23 130
-98 139 -127 17 -55 82 -74 254 -74 129 0 132 -1 179 -30 26 -16 44 -30 40
-30 -4 0 6 -12 21 -27 22 -22 27 -34 22 -53 -5 -21 -13 -26 -55 -30 -55 -6
-55 -6 -140 -68 -33 -24 -76 -52 -95 -62 -84 -43 -125 -121 -74 -140 14 -6 36
-10 49 -10 13 0 25 -6 28 -12 3 -10 7 -10 19 -1 8 7 17 10 20 7 4 -3 30 2 59
10 29 9 71 16 94 16 23 0 60 9 83 20 23 11 66 25 94 30 29 6 55 14 59 18 4 4
4 29 -1 56 -8 52 -3 86 11 86 5 0 9 6 9 13 0 6 19 25 41 41 23 16 47 44 55 62
21 49 54 81 111 103 115 45 201 37 248 -25 29 -38 44 -98 26 -108 -6 -4 -11
-16 -11 -26 0 -27 35 -34 143 -26 136 9 311 -14 372 -49 41 -25 53 -27 109
-22 90 8 159 36 170 69 19 53 -53 154 -114 161 -55 6 -137 46 -144 69 -6 27
53 101 96 119 26 11 40 10 92 -5 171 -49 200 -47 261 19 22 23 61 52 86 63 40
17 50 18 77 7 87 -37 227 -21 227 25 0 13 -12 32 -28 44 -27 20 -39 21 -189
18 -158 -4 -160 -3 -216 25 -31 15 -63 37 -71 48 -8 11 -34 39 -58 62 -42 40
-46 41 -96 37 -146 -13 -309 19 -372 74 -28 24 -82 49 -117 53 -13 2 -48 -10
-78 -26 -69 -36 -100 -34 -157 10 -45 34 -48 35 -139 35 -64 0 -111 6 -156 20
-84 26 -96 26 -103 -7 -12 -55 -44 -112 -80 -138 -33 -26 -40 -27 -102 -22
-36 4 -76 13 -89 22 -18 12 -43 15 -96 12 -56 -3 -79 0 -101 13 -16 10 -24 19
-18 21 7 3 13 20 15 39 2 19 6 42 10 50 6 17 2 67 -7 76 -3 3 -3 12 0 20 8 20
-32 16 -92 -10z m1175 -321 c0 -8 -4 -15 -9 -15 -5 0 -16 -3 -24 -6 -12 -4
-14 0 -10 15 6 24 43 29 43 6z m250 -346 c0 -5 11 -9 25 -9 14 0 25 -4 25 -10
0 -5 -5 -10 -11 -10 -16 0 -39 -26 -39 -45 0 -8 -12 -21 -27 -28 -16 -6 -30
-14 -33 -17 -12 -12 -83 -40 -102 -40 -99 0 -138 97 -58 145 50 29 220 40 220
14z"/>
<path d="M240 4804 c0 -8 5 -12 10 -9 6 4 8 11 5 16 -9 14 -15 11 -15 -7z"/>
<path d="M3915 4778 c-16 -6 -45 -17 -63 -24 -18 -8 -44 -14 -57 -14 -13 0
-27 -5 -30 -10 -9 -15 25 -25 45 -12 12 7 60 6 171 -4 128 -12 161 -19 198
-39 47 -27 76 -31 86 -14 4 5 -1 19 -11 30 -13 15 -29 19 -61 17 -33 -1 -48 3
-63 20 -21 22 -32 26 -58 23 -8 -1 -22 5 -33 15 -22 20 -83 26 -124 12z"/>
<path d="M16222 4753 c-19 -20 -21 -27 -10 -34 17 -11 31 -11 63 1 20 7 26 16
23 33 -4 32 -47 32 -76 0z"/>
<path d="M18686 4515 c-14 -36 -26 -75 -26 -88 0 -24 58 -87 80 -87 7 0 10 -3
7 -7 -8 -7 23 -32 40 -33 7 0 10 7 6 16 -7 20 7 13 99 -48 92 -61 100 -71 102
-120 2 -49 27 -93 57 -101 27 -7 51 2 46 17 -5 13 11 29 33 34 8 2 17 8 18 13
5 13 32 11 32 -2 0 -5 5 -7 10 -4 6 4 10 70 10 166 0 152 -1 159 -20 159 -11
0 -20 -4 -20 -10 0 -5 7 -10 15 -10 8 0 15 -4 15 -10 0 -5 -10 -10 -23 -10
-28 0 -47 -17 -47 -42 0 -12 -8 -18 -24 -18 -16 0 -23 5 -22 17 1 23 -31 29
-36 7 -3 -16 -5 -16 -18 -2 -9 8 -34 21 -55 28 -22 7 -49 17 -60 23 -11 6 -30
16 -41 22 -44 23 -94 69 -94 87 0 10 -3 18 -8 18 -4 0 -12 10 -17 22 -18 39
-32 30 -59 -37z m471 -181 c-9 -9 -28 6 -21 18 4 6 10 6 17 -1 6 -6 8 -13 4
-17z"/>
<path d="M4670 4517 c0 -17 42 -28 62 -16 17 10 8 17 -30 25 -25 5 -32 3 -32
-9z"/>
<path d="M14462 4334 c-29 -20 -28 -48 4 -69 24 -16 27 -16 60 7 38 26 43 44
17 64 -24 18 -54 17 -81 -2z"/>
<path d="M16210 4315 c-7 -8 -25 -15 -41 -15 -15 0 -34 -6 -42 -14 -7 -8 -40
-17 -73 -21 -83 -9 -194 -36 -194 -47 0 -5 14 -14 30 -19 17 -6 30 -15 30 -20
0 -5 19 -21 43 -36 23 -15 57 -39 76 -52 49 -37 79 -38 109 -4 29 33 62 96 62
117 0 24 39 39 86 33 24 -2 45 -2 48 1 11 10 -58 63 -84 65 -17 1 -26 7 -23
15 7 17 -12 15 -27 -3z"/>
<path d="M16927 4316 c-50 -18 -69 -35 -65 -60 4 -29 40 -31 112 -6 33 11 70
20 83 20 14 0 31 7 39 15 13 13 10 16 -22 30 -44 18 -96 19 -147 1z"/>
<path d="M4742 4240 l-23 -10 20 -28 c34 -49 41 -51 101 -35 30 7 63 22 74 32
18 18 17 19 -15 30 -50 16 -131 22 -157 11z"/>
<path d="M18155 4147 c4 -40 26 -117 34 -117 17 1 30 19 36 53 4 20 11 37 16
37 5 0 9 6 9 13 0 26 -19 40 -57 43 -40 3 -40 3 -38 -29z"/>
<path d="M4457 4144 c-8 -8 3 -34 15 -34 5 0 21 9 35 20 l26 20 -35 0 c-19 0
-37 -3 -41 -6z"/>
<path d="M16263 3946 c-13 -7 -20 -16 -16 -20 4 -4 8 -19 8 -34 l0 -27 89 3
c64 2 98 7 120 20 34 20 46 50 24 63 -20 13 -200 9 -225 -5z"/>
<path d="M1152 3800 c-72 -67 -129 -88 -169 -64 -32 20 -45 18 -81 -15 -36
-34 -87 -62 -154 -86 l-47 -16 5 -112 c5 -96 9 -115 27 -130 29 -25 70 -14
137 37 30 22 77 52 103 66 27 14 53 33 58 42 9 17 174 148 187 148 15 0 102
106 102 126 0 32 -36 64 -73 64 -25 -1 -46 -14 -95 -60z"/>
<path d="M18599 3842 c-21 -17 -23 -28 -23 -100 -1 -94 9 -110 75 -122 55 -10
69 -4 69 29 0 14 12 49 25 76 42 85 33 108 -45 120 -25 3 -52 8 -61 11 -9 2
-27 -4 -40 -14z"/>
<path d="M17155 3766 c-16 -7 -44 -19 -61 -26 -33 -14 -64 -73 -79 -150 -15
-74 -75 -148 -141 -176 -22 -9 -41 -19 -44 -23 -16 -20 -80 -56 -137 -76 -66
-24 -103 -49 -103 -69 0 -6 -12 -22 -26 -36 -34 -32 -18 -36 60 -17 33 9 86
21 116 28 30 6 72 20 92 30 63 32 130 25 222 -21 44 -22 88 -40 97 -40 26 0
67 19 119 55 85 59 111 67 204 59 l83 -7 32 46 c17 25 31 50 31 55 0 5 34 45
76 87 65 67 75 82 72 109 -3 31 -4 31 -70 38 -67 6 -196 43 -253 71 -150 75
-226 91 -290 63z"/>
<path d="M15340 3718 c-23 -10 -23 -11 -5 -16 11 -2 22 -7 25 -11 3 -4 28 -12
55 -18 28 -6 68 -18 90 -27 22 -8 57 -15 78 -16 33 0 37 3 37 25 0 19 -6 26
-27 30 -32 7 -95 23 -137 36 -38 12 -85 10 -116 -3z"/>
<path d="M15318 3683 c7 -3 16 -2 19 1 4 3 -2 6 -13 5 -11 0 -14 -3 -6 -6z"/>
<path d="M19040 3683 c-8 -3 -35 -22 -60 -42 -50 -41 -135 -86 -161 -84 -23 2
-46 -43 -33 -64 5 -9 46 -35 89 -58 44 -23 94 -49 110 -57 39 -21 119 -46 173
-54 l42 -7 0 175 0 175 -42 6 c-24 4 -56 8 -73 11 -16 3 -37 3 -45 -1z"/>
<path d="M4652 3519 c-23 -17 -39 -35 -36 -41 6 -9 53 -7 99 5 11 3 23 6 28 6
15 2 6 41 -12 51 -28 15 -33 13 -79 -21z"/>
<path d="M0 3287 l0 -183 73 7 c140 14 191 42 189 104 -1 21 -8 45 -17 55 -8
9 -15 23 -15 31 0 37 -172 169 -221 169 -5 0 -9 -76 -9 -183z"/>
<path d="M1480 3249 c-30 -19 -52 -22 -145 -24 -105 -2 -147 -9 -192 -33 -24
-13 -130 -18 -158 -8 -11 4 -30 13 -42 18 -12 6 -30 7 -40 3 -10 -5 -21 -9
-25 -9 -3 -1 -10 -5 -15 -9 -4 -5 -22 -15 -40 -22 -17 -7 -34 -22 -37 -33 -9
-29 -51 -53 -99 -58 -23 -2 -43 -8 -45 -14 -2 -5 -15 -7 -28 -4 -16 4 -24 2
-24 -6 0 -7 -8 -18 -17 -25 -14 -11 -15 -16 -5 -28 7 -8 12 -19 11 -23 -1 -5
2 -19 6 -32 7 -22 12 -23 55 -17 32 4 70 1 110 -9 77 -20 127 -20 173 -1 67
28 340 11 430 -26 39 -16 100 3 126 40 19 27 243 151 272 151 34 0 87 22 118
49 33 28 34 32 21 55 -11 22 -20 26 -57 26 -24 0 -43 3 -43 8 0 12 -53 31
-105 36 -164 17 -169 17 -205 -5z"/>
<path d="M14854 3196 c-22 -24 -27 -76 -10 -95 16 -17 12 -61 -6 -61 -6 0 -8
-7 -4 -15 4 -10 -1 -15 -14 -15 -11 0 -20 -4 -20 -9 0 -5 8 -7 19 -4 10 2 25
-3 34 -11 20 -21 30 -20 51 2 15 17 15 22 1 63 -13 36 -14 51 -4 80 18 56 -15
102 -47 65z"/>
<path d="M2454 3158 c-4 -6 -8 -49 -9 -95 -2 -96 6 -107 75 -102 28 2 48 -3
70 -19 28 -21 30 -27 30 -87 0 -82 10 -102 70 -143 36 -25 54 -31 73 -27 24 6
78 48 157 123 19 19 49 40 65 49 17 9 32 19 35 23 3 4 26 17 53 28 51 23 61
49 33 88 -13 17 -25 19 -144 16 -81 -2 -133 1 -137 7 -14 24 -74 42 -125 38
-49 -4 -54 -2 -92 35 -21 21 -43 36 -49 33 -5 -4 -13 5 -19 19 -8 21 -16 26
-44 26 -19 0 -38 -5 -42 -12z"/>
<path d="M14616 3089 c-22 -26 -20 -31 21 -57 39 -25 120 -39 141 -24 11 7 9
15 -11 36 -13 14 -29 26 -35 26 -6 0 -15 7 -19 15 -14 24 -77 27 -97 4z"/>
<path d="M18720 3030 c0 -5 -9 -10 -20 -10 -14 0 -26 -14 -41 -44 -11 -25 -27
-50 -35 -57 -8 -6 -14 -16 -14 -21 0 -12 -49 -78 -75 -101 -11 -9 -37 -31 -57
-48 -21 -17 -38 -37 -38 -45 0 -17 -38 -10 -90 18 -21 11 -55 18 -89 18 -61 0
-181 -20 -181 -30 0 -12 94 -87 138 -109 57 -29 149 -34 163 -8 10 18 59 24
59 8 0 -14 45 -61 59 -61 14 0 15 -27 1 -35 -6 -4 -8 -11 -4 -16 3 -6 -1 -9
-9 -7 -17 3 -19 -6 -6 -39 5 -14 17 -23 29 -23 18 0 20 5 17 47 l-5 47 65 33
c70 36 151 45 206 24 16 -6 33 -9 38 -5 5 3 55 9 110 13 l101 8 49 54 c27 30
52 64 55 77 4 13 17 28 30 32 22 9 24 15 24 81 l0 71 -73 -7 c-61 -5 -76 -4
-87 10 -22 26 -91 55 -131 55 -38 0 -89 15 -99 29 -6 9 -75 51 -84 51 -3 0 -6
-4 -6 -10z"/>
<path d="M17957 2942 c-32 -7 -65 -42 -60 -63 3 -10 9 -19 14 -19 5 0 9 -7 9
-16 0 -10 16 -32 35 -50 18 -19 31 -34 27 -34 -18 -1 63 -30 82 -29 21 0 21 1
1 10 -25 12 -45 54 -45 93 0 44 -18 103 -33 108 -6 2 -20 2 -30 0z"/>
<path d="M17663 2917 c-26 -11 -31 -45 -8 -53 30 -12 103 6 108 25 2 10 2 23
-2 27 -9 13 -72 14 -98 1z"/>
<path d="M16832 2794 c-48 -47 -47 -63 2 -87 30 -14 41 -14 90 -3 30 7 58 11
61 8 3 -3 5 0 5 7 0 8 -6 11 -16 7 -9 -3 -12 -2 -9 5 8 12 -54 96 -75 102 -8
2 -34 -15 -58 -39z"/>
<path d="M15113 2810 c-26 -11 -39 -46 -23 -65 9 -11 16 -11 40 2 31 15 37 27
19 38 -6 4 -8 13 -5 21 6 16 0 17 -31 4z"/>
<path d="M2369 2587 c-37 -17 -60 -38 -70 -65 -5 -13 -18 -26 -29 -29 -11 -3
-20 -9 -20 -15 0 -5 -9 -18 -20 -30 -14 -16 -17 -25 -9 -39 18 -35 47 -42 110
-29 33 7 86 10 118 7 56 -5 61 -3 87 24 22 23 25 32 16 41 -7 7 -12 21 -12 32
0 11 -12 37 -26 57 -19 28 -36 40 -69 48 -24 6 -45 11 -47 10 -2 0 -15 -6 -29
-12z"/>
<path d="M793 2527 c-13 -29 -3 -121 15 -139 6 -6 43 -11 81 -12 63 0 75 3
113 30 39 27 88 86 88 105 0 13 -66 30 -107 28 -21 -1 -70 2 -108 6 -69 7 -71
7 -82 -18z"/>
<path d="M3941 2405 c-1 -6 -33 -10 -73 -10 -93 -1 -164 -17 -189 -43 -10 -12
-19 -24 -19 -28 0 -4 -8 -13 -17 -20 -11 -8 -13 -13 -5 -14 17 0 15 -40 -2
-40 -8 0 -16 -7 -19 -14 -4 -10 -18 -14 -40 -13 -26 2 -42 11 -63 37 -16 19
-32 37 -36 38 -5 2 -8 10 -8 17 0 18 -64 38 -92 29 -25 -7 -64 -44 -60 -56 1
-5 -9 -8 -23 -8 -14 0 -25 -5 -25 -10 0 -6 -15 -8 -38 -4 -40 6 -72 -12 -72
-41 0 -15 50 -95 60 -95 4 0 15 16 26 35 20 38 72 57 98 36 11 -9 15 -9 18 0
3 9 21 4 61 -15 52 -24 59 -25 84 -12 24 12 30 12 42 -1 10 -11 11 -17 3 -22
-18 -11 37 -81 63 -81 12 0 32 -12 46 -26 28 -30 72 -52 114 -56 27 -3 30 0
36 32 3 19 16 53 28 74 13 23 21 50 18 63 -5 26 18 57 34 47 6 -3 3 10 -5 30
-17 40 -5 96 20 96 8 0 14 5 14 12 0 6 7 19 16 29 9 10 14 24 11 31 -3 7 -6 9
-6 3z"/>
<path d="M14168 2383 c7 -3 16 -2 19 1 4 3 -2 6 -13 5 -11 0 -14 -3 -6 -6z"/>
<path d="M2950 2243 c-8 -2 -28 -11 -45 -18 -16 -7 -46 -18 -67 -26 -34 -11
-37 -16 -40 -58 -3 -37 0 -50 18 -69 19 -20 23 -20 34 -7 7 9 20 13 28 10 21
-8 59 20 77 57 8 18 30 50 49 70 26 28 30 38 19 42 -17 7 -52 7 -73 -1z"/>
<path d="M2513 2210 c-9 -16 -20 -30 -24 -30 -3 0 -18 -11 -34 -24 -38 -33
-91 -46 -158 -40 -58 6 -167 -19 -167 -37 0 -20 -39 -47 -59 -42 -15 4 -21 1
-21 -11 0 -9 6 -16 13 -16 8 0 8 -3 -2 -9 -16 -10 -41 -75 -41 -108 0 -12 -5
-25 -10 -28 -8 -5 -7 -12 1 -22 9 -10 23 -13 48 -9 106 18 151 19 157 2 12
-30 52 -43 108 -35 53 9 96 27 96 41 0 4 3 8 8 8 4 0 34 24 66 54 56 53 57 55
36 66 -12 6 -33 9 -46 6 -17 -5 -26 -2 -30 9 -4 8 -13 15 -22 15 -13 0 -13 2
1 18 10 10 17 28 17 40 0 24 14 35 48 37 13 0 26 5 30 11 4 6 14 13 23 17 29
10 69 71 62 95 -4 18 -13 22 -44 22 -32 0 -41 -5 -56 -30z"/>
<path d="M14485 2090 c-25 -33 -53 -64 -63 -69 -14 -8 -13 -10 11 -16 41 -11
116 4 139 27 16 16 19 28 15 55 -7 39 -23 63 -43 63 -7 0 -34 -27 -59 -60z"/>
<path d="M18850 2131 c-14 -4 -31 -18 -39 -32 -12 -22 -12 -30 2 -59 19 -38
14 -134 -9 -160 -7 -9 -18 -39 -24 -66 -9 -43 -18 -56 -57 -85 -76 -56 -85
-60 -123 -53 -19 3 -55 6 -80 6 -25 1 -51 5 -57 11 -7 5 -33 6 -59 2 -27 -4
-50 -2 -58 4 -7 6 -26 13 -42 15 -36 4 -80 22 -88 35 -3 5 -21 13 -39 16 -34
8 -97 38 -136 67 -13 10 -35 18 -50 18 -14 0 -39 9 -56 20 -16 11 -35 20 -42
20 -13 0 -50 24 -134 88 -50 37 -62 42 -110 42 -44 0 -58 -5 -76 -24 -13 -13
-23 -34 -23 -47 0 -23 26 -122 40 -149 4 -9 11 -31 15 -50 15 -77 28 -99 63
-111 38 -12 49 -11 181 25 124 34 167 34 217 -3 21 -15 48 -38 58 -50 11 -11
24 -21 30 -21 5 0 26 -11 45 -24 41 -28 101 -43 101 -27 0 22 21 10 62 -34 40
-43 79 -58 93 -35 3 5 34 8 68 6 34 -2 72 0 85 5 16 6 43 4 82 -6 32 -8 68
-15 80 -15 12 0 50 -14 83 -31 l61 -31 56 24 c57 24 147 31 203 15 l27 -7 0
74 c0 84 7 76 -95 96 -33 7 -70 14 -83 16 -33 7 -56 66 -48 124 14 95 7 210
-13 210 -11 0 -42 70 -36 81 4 5 15 9 25 9 13 0 18 5 14 15 -4 8 -1 22 5 29
10 11 8 19 -6 35 -18 22 -62 26 -113 12z"/>
<path d="M4670 2090 c0 -5 5 -10 11 -10 5 0 7 5 4 10 -3 6 -8 10 -11 10 -2 0
-4 -4 -4 -10z"/>
<path d="M19082 2093 c-6 -2 -10 -9 -6 -14 3 -5 0 -9 -7 -9 -7 0 -3 -9 9 -20
25 -23 64 -26 81 -6 13 16 -3 25 -47 27 -17 1 -21 3 -9 6 9 2 15 9 12 14 -7
10 -13 10 -33 2z"/>
<path d="M3414 2082 c3 -5 -8 -22 -24 -37 -19 -19 -30 -39 -30 -57 0 -36 25
-37 65 -4 17 14 43 36 59 49 42 34 30 57 -29 57 -26 0 -44 -4 -41 -8z"/>
<path d="M1997 2053 c-13 -13 -7 -21 13 -16 11 3 20 9 20 14 0 10 -24 12 -33
2z"/>
<path d="M16980 2001 c-25 -9 -67 -23 -95 -30 -27 -7 -75 -23 -105 -36 -30
-13 -77 -32 -105 -43 -94 -38 -52 -71 106 -85 40 -4 106 -14 144 -22 138 -30
169 -35 229 -35 33 0 67 4 74 8 17 11 5 41 -42 106 -20 27 -36 53 -36 58 0 17
-46 70 -72 84 -34 18 -43 17 -98 -5z"/>
<path d="M3440 1974 c0 -8 5 -12 10 -9 6 3 10 10 10 16 0 5 -4 9 -10 9 -5 0
-10 -7 -10 -16z"/>
<path d="M3490 1961 c0 -5 7 -11 15 -15 9 -3 15 0 15 9 0 8 -7 15 -15 15 -8 0
-15 -4 -15 -9z"/>
<path d="M3338 1893 c7 -3 16 -2 19 1 4 3 -2 6 -13 5 -11 0 -14 -3 -6 -6z"/>
<path d="M15995 1842 c-1 -2 -43 -7 -91 -12 -227 -24 -277 -32 -404 -70 -52
-15 -135 -44 -185 -64 -109 -45 -211 -61 -325 -51 -112 10 -142 8 -152 -7 -13
-20 0 -72 37 -157 40 -90 58 -98 145 -67 83 29 211 27 320 -6 169 -52 372 -47
401 11 19 36 158 178 194 198 102 54 108 56 164 48 92 -11 144 -3 181 29 14
12 41 34 60 48 63 47 82 67 78 85 -3 17 -19 18 -211 18 -115 0 -210 -1 -212
-3z"/>
<path d="M3265 1810 c-3 -5 -1 -10 4 -10 6 0 11 5 11 10 0 6 -2 10 -4 10 -3 0
-8 -4 -11 -10z"/>
<path d="M2240 1585 c0 -7 5 -15 12 -17 6 -2 12 -15 13 -29 2 -28 32 -37 64
-19 28 14 27 38 -1 49 -75 30 -88 32 -88 16z"/>
<path d="M14118 1429 c-12 -7 -18 -22 -18 -48 0 -35 4 -42 48 -69 26 -16 58
-33 72 -37 14 -4 34 -14 45 -21 11 -8 30 -14 42 -14 13 0 23 -4 23 -10 0 -5
10 -10 21 -10 12 0 36 -9 53 -20 18 -10 48 -21 69 -23 33 -4 36 -2 31 17 -7
29 -6 82 1 132 6 38 5 41 -32 66 -21 15 -65 31 -97 37 -75 14 -235 14 -258 0z"/>
<path d="M136 1314 c-20 -20 -12 -34 20 -34 28 0 44 28 23 41 -19 12 -25 11
-43 -7z"/>
<path d="M15873 1323 c-17 -6 -16 -28 2 -43 11 -10 18 -9 30 3 31 32 11 58
-32 40z"/>
<path d="M14510 1140 c0 -6 7 -13 15 -16 8 -4 15 -12 15 -20 0 -17 -20 -19
-20 -1 -1 18 -40 -35 -40 -54 0 -22 20 -29 85 -29 58 0 70 9 74 57 2 25 -2 33
-20 38 -13 4 -29 14 -37 21 -16 16 -72 19 -72 4z"/>
<path d="M16172 1064 c-75 -49 -141 -73 -218 -79 -64 -5 -68 -4 -108 28 -53
44 -118 77 -151 77 -34 0 -44 -28 -33 -94 4 -28 5 -75 1 -104 -5 -43 -11 -56
-29 -64 -13 -6 -24 -16 -24 -21 0 -5 -15 -7 -36 -4 -20 4 -52 0 -72 -8 -81
-29 -143 -45 -181 -45 -46 0 -73 -9 -65 -21 3 -5 -10 -7 -28 -6 -26 3 -41 -4
-71 -30 -20 -18 -41 -33 -45 -33 -5 0 -34 -34 -66 -77 -41 -55 -54 -79 -46
-87 19 -19 189 -24 234 -7 28 10 41 11 43 4 3 -8 16 -8 45 3 22 8 46 14 53 14
19 0 92 35 145 69 25 16 67 42 95 57 27 14 55 34 62 43 8 12 27 16 76 15 94
-1 135 -28 294 -196 34 -36 86 -85 115 -109 29 -24 62 -55 72 -69 31 -39 88
-92 134 -124 37 -25 56 -30 149 -38 98 -8 112 -7 165 13 32 12 58 27 57 33 0
6 -36 40 -80 75 -112 89 -131 116 -125 177 3 33 11 54 24 65 25 20 148 32 194
18 18 -5 48 -9 66 -9 43 0 143 -35 162 -57 8 -10 37 -36 65 -58 41 -33 58 -41
110 -45 33 -4 98 -3 145 1 76 7 95 5 174 -19 l89 -27 39 -59 c21 -32 38 -63
38 -68 0 -5 7 -17 16 -26 14 -13 22 -14 63 -3 39 10 91 48 91 66 0 3 16 28 36
55 34 47 35 53 24 80 -7 17 -16 30 -21 30 -5 0 -9 5 -9 10 0 6 7 10 15 10 8 0
24 14 35 32 23 38 13 59 -46 88 -52 27 -61 25 -68 -13 -3 -18 -23 -52 -43 -75
-35 -40 -39 -42 -92 -41 -90 1 -122 17 -154 80 -35 67 -71 107 -105 116 -27 7
-173 82 -182 93 -3 4 -16 13 -30 20 -14 7 -49 31 -79 54 l-54 40 -130 -2
c-142 -3 -275 11 -317 33 -29 15 -77 72 -100 119 -10 21 -34 41 -75 61 -33 17
-76 40 -95 52 -48 31 -86 28 -148 -13z"/>
<path d="M14352 931 c-5 -3 -11 -16 -15 -29 -6 -26 13 -39 41 -26 9 4 22 8 27
8 6 1 10 12 10 26 0 20 -5 25 -27 26 -15 1 -31 -2 -36 -5z"/>
<path d="M14310 870 c0 -5 5 -10 11 -10 5 0 7 5 4 10 -3 6 -8 10 -11 10 -2 0
-4 -4 -4 -10z"/>
<path d="M14240 585 c0 -14 12 -41 26 -60 14 -18 29 -49 34 -67 22 -77 55 -84
91 -19 11 20 27 48 36 62 9 14 14 33 10 41 -8 22 -84 55 -144 63 -52 7 -53 7
-53 -20z"/>
<path d="M2183 370 c-39 -39 -125 -178 -153 -250 -8 -19 -26 -51 -42 -70 -15
-19 -28 -38 -28 -42 0 -5 89 -8 197 -8 l197 0 27 33 c29 34 27 34 44 -18 3
-12 24 -15 100 -15 52 0 95 3 96 8 0 4 2 27 3 52 1 25 10 61 19 80 20 42 31
140 16 140 -5 0 -37 13 -70 30 -73 36 -117 40 -155 15 -19 -12 -29 -14 -32 -7
-2 7 -16 12 -31 12 -19 0 -40 13 -67 40 -21 22 -48 40 -59 40 -11 0 -39 -18
-62 -40z"/>
<path d="M18080 380 c0 -5 5 -10 10 -10 6 0 10 5 10 10 0 6 -4 10 -10 10 -5 0
-10 -4 -10 -10z"/>
<path d="M18880 270 c0 -5 -7 -10 -15 -10 -8 0 -15 -4 -15 -8 0 -4 -25 -23
-55 -41 -53 -32 -57 -33 -127 -26 -40 4 -85 13 -99 21 -22 11 -34 11 -76 -3
-28 -9 -68 -31 -89 -49 l-39 -33 34 -31 c40 -37 55 -37 166 3 139 50 171 58
231 57 41 -1 66 4 76 13 8 8 24 17 36 21 11 4 33 21 47 38 l26 30 -27 14 c-31
16 -74 18 -74 4z"/>
<path d="M19169 258 c-5 -17 -6 -38 -2 -38 10 0 32 28 26 34 -6 6 -22 8 -24 4z"/>
<path d="M4482 47 c-18 -18 -32 -36 -32 -40 0 -4 29 -7 65 -7 62 0 65 1 65 24
0 24 -32 56 -55 56 -6 0 -25 -15 -43 -33z"/>
</g>
</svg>
