<svg id="Icon_Business_Fill" data-name="Icon/Business/Fill" xmlns="http://www.w3.org/2000/svg" width="15.754" height="15.88" viewBox="0 0 15.754 15.88">
  <g id="Group_2" data-name="Group 2">
    <path id="Path_Copy" data-name="Path Copy" d="M5.514,0H.008L0,6.834A1.443,1.443,0,0,0,1.575,8.105H12.6a1.443,1.443,0,0,0,1.575-1.271V0H8.665V.636H5.514Z" transform="translate(0.784 5.583)" fill="#328cff"/>
    <path id="Shape" d="M11.678,3.088V1.544L10.1,0H5.628L4.061,1.544V3.088H1.575A1.559,1.559,0,0,0,0,4.632V7.609A1.559,1.559,0,0,0,1.575,9.153H6.3V7.609H9.452V9.153h4.726a1.559,1.559,0,0,0,1.575-1.544V4.632a1.565,1.565,0,0,0-1.579-1.544Z" fill="#fff"/>
    <path id="Path" d="M5.514,0H.008L0,3.749A1.554,1.554,0,0,0,1.575,5.293H12.6a1.554,1.554,0,0,0,1.575-1.544V0H8.665V.772H5.514Z" transform="translate(0.784 10.587)" fill="#fff"/>
    <path id="Path-2" data-name="Path" d="M0,1.544V0H3.151V1.544Z" transform="translate(6.294 1.544)" fill="#328cff"/>
  </g>
</svg>
