<svg xmlns="http://www.w3.org/2000/svg" width="15.13" height="15.887" viewBox="0 0 15.13 15.887">
  <g id="Icon_Support_Fill" data-name="Icon/Support/Fill" transform="translate(0)">
    <g id="ic-live-help-24px">
      <path id="Shape" d="M1.681,0A1.644,1.644,0,0,0,0,1.606V12.2A1.644,1.644,0,0,0,1.681,13.8H5.043l2.522,2.084L10.087,13.8h3.362A1.65,1.65,0,0,0,15.13,12.2V1.606A1.65,1.65,0,0,0,13.449,0Z" fill="#328cff"/>
      <path id="Shape_Copy_3" data-name="Shape Copy 3" d="M7.565,15.887h0L5.044,13.8H1.681A1.647,1.647,0,0,1,0,12.2V1.606A1.647,1.647,0,0,1,1.681,0H13.449A1.647,1.647,0,0,1,15.13,1.606V12.2A1.647,1.647,0,0,1,13.449,13.8H10.087L7.566,15.886Zm-.688-4.864v1.3H8.253v-1.3Zm.688-7.132a1.339,1.339,0,0,1,1.375,1.3,1.231,1.231,0,0,1-.406.914l-.852.817a2.522,2.522,0,0,0-.8,1.835v.324H8.253a2.141,2.141,0,0,1,.8-1.835l.619-.6a1.994,1.994,0,0,0,.639-1.459,2.679,2.679,0,0,0-2.75-2.594A2.679,2.679,0,0,0,4.814,5.188H6.189A1.34,1.34,0,0,1,7.565,3.891Z" fill="#fff"/>
    </g>
  </g>
</svg>
