<svg xmlns="http://www.w3.org/2000/svg" width="15" height="15" viewBox="0 0 15 15">
  <g id="Icon_Explore_Fill" data-name="Icon/Explore/Fill" transform="translate(0 0)">
    <g id="Group_89" data-name="Group 89">
      <path id="Shape" d="M11.014.984a7.3,7.3,0,0,1,2.669,2.669,7.174,7.174,0,0,1,.984,3.681,7.174,7.174,0,0,1-.984,3.681,7.3,7.3,0,0,1-2.669,2.669,7.174,7.174,0,0,1-3.681.984,7.174,7.174,0,0,1-3.681-.984A7.3,7.3,0,0,1,.984,11.014,7.174,7.174,0,0,1,0,7.333,7.174,7.174,0,0,1,.984,3.652,7.3,7.3,0,0,1,3.652.984,7.174,7.174,0,0,1,7.333,0,7.174,7.174,0,0,1,11.014.984Z" transform="translate(0.333 0.333)" fill="#328cff"/>
      <path id="Shape_Copy_2" data-name="Shape Copy 2" d="M7.5,15a7.372,7.372,0,0,1-3.765-1.006,7.5,7.5,0,0,1-2.729-2.73A7.367,7.367,0,0,1,0,7.5,7.372,7.372,0,0,1,1.006,3.735,7.5,7.5,0,0,1,3.735,1.006,7.372,7.372,0,0,1,7.5,0a7.367,7.367,0,0,1,3.765,1.006,7.5,7.5,0,0,1,2.73,2.729A7.372,7.372,0,0,1,15,7.5a7.367,7.367,0,0,1-1.006,3.765,7.5,7.5,0,0,1-2.73,2.73A7.367,7.367,0,0,1,7.5,15Zm1.407-3.74h0a.032.032,0,0,1,0,.006c.013.069.026.185.037.335a2.948,2.948,0,0,0,.049.371.451.451,0,0,1-.117.469.794.794,0,0,0-.283.391c-.026.143.013.228.117.254a.448.448,0,0,1-.078.2.361.361,0,0,0-.068.21.8.8,0,0,0,.02.156,6.07,6.07,0,0,0,3.427-1.845.224.224,0,0,0-.122-.044.367.367,0,0,1-.122-.034,1.49,1.49,0,0,0-.234-.078.193.193,0,0,0-.024-.127.282.282,0,0,0-.078-.088L11.38,11.4l-.072-.046L11.2,11.29c-.014-.014-.038-.035-.068-.059l-.053-.041-.015-.012a.77.77,0,0,0-.074-.044.143.143,0,0,0-.067-.022l-.016,0a.345.345,0,0,1-.1.01l-.03.01a.268.268,0,0,0-.054.024l-.053.03a.1.1,0,0,0-.04.029c-.006.01-.006.018,0,.024a1.209,1.209,0,0,0-.351-.214.3.3,0,0,1-.108-.054.81.81,0,0,0-.1-.068.134.134,0,0,0-.067-.018.155.155,0,0,0-.031,0,.219.219,0,0,0-.113.068A.232.232,0,0,0,9.8,11.1a.622.622,0,0,1-.02.127c-.045-.032-.045-.09,0-.17s.052-.142.02-.181a.079.079,0,0,0-.075-.047l-.028,0a.322.322,0,0,0-.117.044c-.031.02-.068.048-.113.083a.866.866,0,0,1-.087.064.834.834,0,0,0-.084.053.337.337,0,0,0-.083.074.476.476,0,0,0-.058.117.652.652,0,0,1-.049.107c-.014-.026-.05-.047-.113-.063s-.085-.03-.091-.047Zm-.545.013h0a.24.24,0,0,0,.074.171.223.223,0,0,0,.153.1l.022,0c.092-.02.137-.122.137-.313a.411.411,0,0,1-.177.046.351.351,0,0,1-.3-.222A.225.225,0,0,0,8.247,11a.613.613,0,0,1-.039-.083.588.588,0,0,1-.024-.083.142.142,0,0,1,0-.073.045.045,0,0,1,.049-.03c.058,0,.091-.012.1-.034a.247.247,0,0,0-.02-.122c-.023-.069-.034-.107-.039-.127a.428.428,0,0,0-.108-.2c-.064-.078-.1-.127-.117-.146a.144.144,0,0,1-.134.079H7.89a.191.191,0,0,1-.156-.087.276.276,0,0,1-.015.053.264.264,0,0,0-.014.064H7.7a.541.541,0,0,1-.14-.01,1.065,1.065,0,0,0,.025-.171,1.481,1.481,0,0,1,.034-.22A.541.541,0,0,1,7.671,9.7c.027-.048.052-.1.074-.142a.494.494,0,0,0,.039-.122.085.085,0,0,0-.044-.093.221.221,0,0,0-.119-.027l-.052,0a.271.271,0,0,0-.254.2c0,.013-.014.043-.029.1a.332.332,0,0,1-.049.112.233.233,0,0,1-.087.068.427.427,0,0,1-.159.022l-.076,0a.575.575,0,0,1-.234-.049.617.617,0,0,1-.22-.284.9.9,0,0,1-.093-.361,1.825,1.825,0,0,1,.024-.259c.017-.111.026-.191.029-.244a.636.636,0,0,0-.053-.239.543.543,0,0,0,.087-.093.645.645,0,0,1,.1-.1A.158.158,0,0,1,6.6,8.169l.023,0,.02,0h.007a.046.046,0,0,0,.032-.016A.122.122,0,0,0,6.709,8.1a.235.235,0,0,0-.039-.029.193.193,0,0,0-.031-.027.223.223,0,0,0,.069.009,1.055,1.055,0,0,0,.2-.026A.751.751,0,0,1,7.061,8a.163.163,0,0,1,.116.033.212.212,0,0,0,.118.05.111.111,0,0,0,.1-.069.794.794,0,0,0-.024-.093.209.209,0,0,1-.005-.131c.02.105.062.158.126.158a.287.287,0,0,0,.158-.07A.333.333,0,0,0,7.8,7.93a.5.5,0,0,1,.171.049.654.654,0,0,1,.068.054c.026.023.044.037.054.044a.027.027,0,0,0,.014,0,.09.09,0,0,0,.034-.009.3.3,0,0,0,.083-.063.634.634,0,0,1,.117.234c.072.26.135.4.186.429a.222.222,0,0,0,.086.022l.021,0c.026-.006.04-.037.044-.093a1.144,1.144,0,0,0,0-.137c0-.036-.008-.076-.014-.122l-.01-.078V8.086l-.01-.077c-.1-.02-.159-.059-.181-.118a.21.21,0,0,1,.014-.18.683.683,0,0,1,.147-.181A.322.322,0,0,1,8.7,7.5a1.587,1.587,0,0,0,.151-.064.436.436,0,0,0,.122-.077c.138-.125.186-.237.147-.342.047,0,.081-.031.107-.088h0a.152.152,0,0,1-.048-.029.7.7,0,0,0-.074-.049.126.126,0,0,0-.044-.019.089.089,0,0,0,.048-.054.135.135,0,0,0-.028-.1.185.185,0,0,0,.074-.107.144.144,0,0,1,.073-.1.133.133,0,0,0,.1.064.163.163,0,0,0,.1-.044.1.1,0,0,0,.01-.157.334.334,0,0,1,.2-.1c.1-.023.161-.053.181-.093a.142.142,0,0,0,.039.007A.035.035,0,0,0,9.9,6.114.548.548,0,0,0,9.912,6a.193.193,0,0,1,.03-.117.325.325,0,0,1,.147-.087c.067-.025.112-.043.127-.049l.166-.107c.012-.016.017-.027.014-.033a.01.01,0,0,0-.007-.006l.04,0a.353.353,0,0,0,.256-.11A.112.112,0,0,0,10.72,5.4c-.006-.036-.038-.071-.095-.1A.064.064,0,0,0,10.6,5.2a.533.533,0,0,0-.147-.054.21.21,0,0,1,.062-.006l.05,0h.031a.112.112,0,0,0,.071-.015c.043-.029.063-.056.059-.079s-.048-.056-.127-.077a.285.285,0,0,0-.08-.011.659.659,0,0,0-.34.128.584.584,0,0,0-.093.093.263.263,0,0,1-.124.091A.1.1,0,0,0,10,5.225c.016-.031.031-.066.049-.107a.3.3,0,0,1,.034-.068.692.692,0,0,1,.215-.147,2.456,2.456,0,0,1,.508-.117.8.8,0,0,1,.182-.023.4.4,0,0,1,.315.13c-.01-.014.022-.057.093-.126a.676.676,0,0,1,.142-.117.533.533,0,0,1,.146-.044.221.221,0,0,0,.147-.073l.02-.215h-.025a.164.164,0,0,1-.146-.069.416.416,0,0,1-.064-.205c0,.016-.022.043-.058.078,0-.045-.014-.072-.043-.078a.151.151,0,0,0-.031,0,.308.308,0,0,0-.081.013.267.267,0,0,1-.069.013.046.046,0,0,1-.019,0,.407.407,0,0,1-.147-.073.323.323,0,0,1-.077-.161c-.019-.074-.033-.127-.04-.147a.293.293,0,0,0-.093-.108.334.334,0,0,1-.093-.1c-.008-.017-.015-.033-.024-.054s-.02-.044-.03-.063a.2.2,0,0,0-.039-.054.075.075,0,0,0-.054-.024c-.019,0-.043.017-.068.049s-.051.066-.073.1-.041.049-.044.049a.079.079,0,0,0-.046-.016h-.013a.333.333,0,0,0-.044.009.182.182,0,0,0-.044.03.231.231,0,0,1-.049.034.243.243,0,0,1-.083.03c-.03.005-.054.01-.072.016.038-.015.059-.03.059-.046s-.027-.038-.08-.058a.371.371,0,0,0-.132-.032l-.024,0a.1.1,0,0,0,.073-.117.229.229,0,0,0-.083-.137h.05c-.007-.026-.034-.053-.084-.083a1.123,1.123,0,0,0-.171-.083.938.938,0,0,1-.127-.059,1.042,1.042,0,0,0-.332-.093,1.328,1.328,0,0,0-.218-.024.224.224,0,0,0-.1.018.145.145,0,0,0-.043.1A.626.626,0,0,0,9,3.11a.481.481,0,0,1,.034.122.157.157,0,0,1-.054.127.188.188,0,0,0-.063.117c0,.046.046.1.137.151a.171.171,0,0,1,.1.21.355.355,0,0,1-.157.157.662.662,0,0,0-.156.117.2.2,0,0,0-.014.181.348.348,0,0,0,.1.161.042.042,0,0,1,.014.039.093.093,0,0,1-.034.044.5.5,0,0,1-.054.04l-.007,0-.056.03-.03.019a.159.159,0,0,1-.066.015A.178.178,0,0,1,8.56,4.57a.626.626,0,0,1-.132-.254.487.487,0,0,0-.156-.293A.565.565,0,0,0,8.1,3.987a.12.12,0,0,0-.108.046c-.032-.084-.166-.169-.4-.254a1.02,1.02,0,0,0-.345-.056,1.475,1.475,0,0,0-.211.016.043.043,0,0,0,.014-.014c.012-.022,0-.066-.024-.131-.038-.081-.088-.122-.148-.122a.155.155,0,0,0-.038,0,.485.485,0,0,0,.04-.171c.006-.071.01-.118.01-.131A.49.49,0,0,1,7,2.949c.005-.005.022-.026.051-.061l.018-.022a1.115,1.115,0,0,0,.093-.132c.015-.026.021-.043.017-.052a.01.01,0,0,0-.008-.006,1.237,1.237,0,0,0,.131.008.485.485,0,0,0,.353-.115A.753.753,0,0,0,7.769,2.4a1.226,1.226,0,0,1,.1-.166A.257.257,0,0,1,8,2.182h.007a.452.452,0,0,1,.141.054.344.344,0,0,0,.141.049h.02a.115.115,0,0,0,.131-.108.213.213,0,0,0-.073-.2H8.38a.053.053,0,0,0,.049-.021c.016-.025.005-.075-.03-.146a.212.212,0,0,0-.078-.087.238.238,0,0,0-.075-.012.371.371,0,0,0-.188.061c-.024.012-.035.024-.035.035s.018.028.052.042c-.012,0-.04.033-.091.1a.8.8,0,0,1-.161.17.09.09,0,0,1-.055.021.136.136,0,0,1-.1-.07.811.811,0,0,1-.054-.131c-.028-.08-.059-.125-.093-.132-.052,0-.1.049-.157.147.02-.052-.015-.1-.107-.147a.734.734,0,0,0-.234-.078c.051-.032.077-.067.076-.1s-.053-.1-.155-.161a.5.5,0,0,0-.2-.049l-.041,0a.225.225,0,0,0-.149.041.267.267,0,0,0-.054.112.085.085,0,0,0,.049.078.633.633,0,0,0,.1.054c.038.015.075.028.113.039a.738.738,0,0,1,.083.03c.064.045.1.082.1.108a.035.035,0,0,1-.018.028c-.014.007-.043.019-.083.034l-.008,0-.1.041a.111.111,0,0,0-.058.039.159.159,0,0,0,0,.137c.02.064.013.11-.02.137a.432.432,0,0,1-.087-.171A.752.752,0,0,0,6.5,1.983l-.007-.01.006.009a.028.028,0,0,1,0,.029c-.011.018-.051.027-.121.027-.036,0-.081,0-.133-.007l-.1-.01A1.149,1.149,0,0,0,6,2.041a.9.9,0,0,1-.143.013.5.5,0,0,1-.057,0,.185.185,0,0,1-.132-.078.249.249,0,0,1,0-.2c0-.018.012-.026.022-.026a.034.034,0,0,1,.017.006c-.028-.021-.064-.052-.108-.093a.822.822,0,0,0-.1-.083,5.519,5.519,0,0,0-.918.4.245.245,0,0,0,.117-.01,1.191,1.191,0,0,0,.127-.064L4.838,1.9l.084-.045a.979.979,0,0,1,.329-.091.118.118,0,0,1,.08.023l.05-.05a2.756,2.756,0,0,1,.2.245.279.279,0,0,0-.13-.023,1.288,1.288,0,0,0-.164.013c-.129.039-.2.078-.214.117a.245.245,0,0,1,.049.176A1.309,1.309,0,0,1,5,2.168a.73.73,0,0,0-.141-.107.4.4,0,0,0-.147-.049,1.589,1.589,0,0,0-.215.01A6.2,6.2,0,0,0,2.207,4.19a.256.256,0,0,0,.117.078c.026.006.042.036.05.087a.372.372,0,0,0,.024.108.019.019,0,0,0,.019.01.224.224,0,0,0,.094-.04.136.136,0,0,1,.029.185h0a3.888,3.888,0,0,1,.43.264,1.293,1.293,0,0,1,.2.205c.02.072-.012.13-.1.176a.474.474,0,0,0-.088-.088c-.037-.032-.061-.048-.075-.048a.012.012,0,0,0-.012.009.259.259,0,0,0,0,.18c.021.082.052.123.094.123-.041.006-.068.056-.084.155a2.287,2.287,0,0,0-.024.347,1.494,1.494,0,0,1-.01.229l.02.01a.609.609,0,0,0,.053.337c.049.128.11.193.181.193l.021,0a.043.043,0,0,0-.024.026c-.019.055.058.187.228.393a.418.418,0,0,0,.077.088l.093.058.025.015a1.754,1.754,0,0,1,.146.1.4.4,0,0,1,.1.1.842.842,0,0,1,.1.22.484.484,0,0,0,.137.23c-.013.039.017.1.093.2a.329.329,0,0,1,.1.224.054.054,0,0,0-.024.01.051.051,0,0,1-.024.01.336.336,0,0,0,.151.137.361.361,0,0,1,.151.127.531.531,0,0,1,.02.1.343.343,0,0,0,.03.108.044.044,0,0,0,.043.026.113.113,0,0,0,.036-.007,1.164,1.164,0,0,0-.235-.6c-.1-.164-.153-.257-.166-.283a.547.547,0,0,1-.054-.151.667.667,0,0,0-.044-.141h0A.178.178,0,0,1,4.17,7.7c.026.01.054.021.083.034a.5.5,0,0,1,.074.039c.014.01.022.017.022.024a.007.007,0,0,1,0,.006.206.206,0,0,0,.019.171.776.776,0,0,0,.117.18l.166.186.114.124a.983.983,0,0,1,.139.193c.034.058.046.1.035.117a.037.037,0,0,1-.035.015.3.3,0,0,1,.2.1,1.2,1.2,0,0,1,.167.19.726.726,0,0,1,.077.254,1.811,1.811,0,0,0,.049.235.307.307,0,0,0,.083.131.469.469,0,0,0,.122.093l.157.078.127.068a1.49,1.49,0,0,1,.181.1,1.309,1.309,0,0,0,.21.112.445.445,0,0,0,.157.039.515.515,0,0,0,.141-.024c.064-.019.1-.029.132-.034l.03,0a.338.338,0,0,1,.253.149.973.973,0,0,0,.205.205.945.945,0,0,0,.413.13.322.322,0,0,0,.122-.022c-.011.008-.009.031.007.072a.948.948,0,0,0,.078.152c.036.058.065.105.088.141l.037.059.016.024a.931.931,0,0,0,.176.147.89.89,0,0,1,.175.147A.17.17,0,0,0,8.361,11.274Z" fill="#fff"/>
    </g>
  </g>
</svg>
