<svg id="Icon_Booking_Fill" data-name="Icon/Booking/Fill" xmlns="http://www.w3.org/2000/svg" width="15.667" height="15.667" viewBox="0 0 15.667 15.667">
  <g id="Group_Copy" data-name="Group Copy">
    <g id="Group_88" data-name="Group 88">
      <path id="Rectangle-161-Copy" d="M2.233,0A2.36,2.36,0,0,1,4.6,2.35V13.317a2.36,2.36,0,0,1-2.371,2.35H0V0Z" transform="translate(11.063)" fill="#328cff" opacity="0.3"/>
      <path id="Combined-Shape" d="M10.273,0a2.36,2.36,0,0,1,2.371,2.35V13.317a2.36,2.36,0,0,1-2.371,2.35H.79A.787.787,0,0,1,0,14.883V.783A.787.787,0,0,1,.79,0Z" fill="#328cff"/>
      <path id="Combined-Shape_Copy" data-name="Combined-Shape Copy" d="M10.925,15.666H.79A.788.788,0,0,1,0,14.883V.783A.788.788,0,0,1,.79,0H10.925A2.363,2.363,0,0,1,13.3,2.35V13.316A2.363,2.363,0,0,1,10.925,15.666ZM6.555,7.834a3.644,3.644,0,0,0-3.943,3.524.481.481,0,0,0,.145.279.3.3,0,0,0,.173.113h7.252a.318.318,0,0,0,.242-.089.417.417,0,0,0,.088-.3A3.605,3.605,0,0,0,6.555,7.834ZM6.411,3.917a1.567,1.567,0,1,0,1.58,1.567A1.575,1.575,0,0,0,6.411,3.917Z" fill="#fff"/>
    </g>
  </g>
</svg>
