<svg id="Logo" xmlns="http://www.w3.org/2000/svg" xmlns:xlink="http://www.w3.org/1999/xlink" width="30" height="30" viewBox="0 0 30 30">
  <defs>
    <linearGradient id="linear-gradient" x1="0.783" y1="0.917" x2="0.233" y2="0.117" gradientUnits="objectBoundingBox">
      <stop offset="0" stop-color="#d10015"/>
      <stop offset="1" stop-color="#ff4369"/>
    </linearGradient>
  </defs>
  <g id="Fond_Big_Circle" data-name="Fond/Big/Circle">
    <path id="Color-or-Image" d="M30-15A15,15,0,0,1,15,0,15,15,0,0,1,0-15,15,15,0,0,1,15-30,15,15,0,0,1,30-15Z" transform="translate(0 30)" fill="url(#linear-gradient)"/>
  </g>
  <g id="Icon" transform="translate(9.6 6.909)" opacity="0.9">
    <path id="Shape" d="M5.4,16.183a4.619,4.619,0,0,1-4.685-4.54A4.619,4.619,0,0,1,5.4,7.1a4.619,4.619,0,0,1,4.685,4.539A4.619,4.619,0,0,1,5.4,16.183Zm0-8.05a3.5,3.5,0,1,0,0,7,3.5,3.5,0,1,0,0-7ZM6.759,13.7a.293.293,0,0,1-.158-.05l-1.2-.725-1.184.725a.291.291,0,0,1-.157.05.3.3,0,0,1-.233-.118.265.265,0,0,1-.046-.237l.331-1.316-1.1-.877a.27.27,0,0,1-.092-.3.3.3,0,0,1,.267-.207l1.411-.1.54-1.265a.3.3,0,0,1,.557,0l.54,1.265,1.411.1a.272.272,0,0,1,.24.19.291.291,0,0,1-.083.316l-1.1.877.33,1.316a.275.275,0,0,1-.046.243A.3.3,0,0,1,6.759,13.7ZM3.676,6.328h0L0,0H1.063L4.616,6.142a5.342,5.342,0,0,0-.94.185Zm3.292-.033h0a6.221,6.221,0,0,0-1.147-.2L2.282,0H3.327L6.967,6.292Zm.749-.962h0L7.177,4.4,9.737,0H10.8L7.717,5.331ZM6.567,3.358h0l-.522-.893L7.473,0H8.519L6.568,3.356Z" fill="#fff" opacity="0.9"/>
  </g>
</svg>
