<svg xmlns="http://www.w3.org/2000/svg" xmlns:xlink="http://www.w3.org/1999/xlink" width="1120" height="325" viewBox="0 0 1120 325">
  <defs>
    <filter id="BG" x="0" y="0" width="1120" height="325" filterUnits="userSpaceOnUse">
      <feOffset dy="20" input="SourceAlpha"/>
      <feGaussianBlur stdDeviation="20" result="blur"/>
      <feFlood flood-opacity="0.039"/>
      <feComposite operator="in" in2="blur"/>
      <feComposite in="SourceGraphic"/>
    </filter>
    <clipPath id="clip-path">
      <rect id="Mask" width="445" height="205" rx="14" fill="#ffc54d"/>
    </clipPath>
  </defs>
  <g id="Fond" transform="translate(60 40)">
    <g id="Shadow_Dark_01-Small" data-name="Shadow/Dark/01-Small">
      <g transform="matrix(1, 0, 0, 1, -60, -40)" filter="url(#BG)">
        <path id="BG-2" data-name="BG" d="M986,0a14,14,0,0,1,14,14V191a14,14,0,0,1-14,14H14A14,14,0,0,1,0,191V14A14,14,0,0,1,14,0Z" transform="translate(60 40)" fill="#f3f4f4"/>
      </g>
    </g>
    <rect id="Background-Blur" width="1000" height="205" rx="32" fill="rgba(0,0,0,0)"/>
    <rect id="Color-or-Image" width="1000" height="205" rx="14" fill="#ffc54d"/>
    <g id="Illustration" transform="translate(360)">
      <rect id="Mask-2" data-name="Mask" width="445" height="205" rx="14" fill="#ffc54d"/>
      <g id="Illustration-2" data-name="Illustration" clip-path="url(#clip-path)">
        <g id="Illustration-3" data-name="Illustration" transform="translate(8 38)">
          <g id="object">
            <g id="Group_9" data-name="Group 9">
              <path id="Fill_67" data-name="Fill 67" d="M258.888,32.55a29.542,29.542,0,0,0-17,3.309C225.253,45.322,223.4,70.9,223.795,91.966,208.2,74.642,187.031,63.9,165.229,62.248c-9.193-.7-18.885.324-26.687,5.886-14.567,10.383-17.916,32.361-19.883,51.718-4.923-6.326-13.1-9.14-20.287-6.982s-13.07,9.186-14.577,17.439c-15.843-8.78-35.535-3.8-49.968,7.686S9.251,166.5,0,183.5c9.673,6.455,20.776,9.552,31.773,12.171,55.831,13.308,113.159,16.348,170.209,17.59,66.848,1.455,133.849.492,200.37-7.135,3.925-.45,8.08-1.026,11.18-3.784a20.114,20.114,0,0,0,4.942-7.98c40.7-107.858-10.85-157.977-21.64-171.522S357.979-3.483,338.269.864c-22.762,5.021-41.37,28.388-43.433,54.548C286.631,42.283,273.062,33.65,258.888,32.55Z" fill="#fff"/>
              <path id="Fill_69" data-name="Fill 69" d="M.8,20.5c1.637-7.628,6.4-14.748,13.323-18.08A26.182,26.182,0,0,1,23.659.047C24.106.016,24.563,0,25.01,0,36.183,0,46,9.612,52.751,18.861a77.023,77.023,0,0,0-13.476-1.294A46.3,46.3,0,0,0,22.212,20.55c-9.631,3.8-17.92,12.309-19.366,22.731A40.716,40.716,0,0,1,.8,20.5Z" transform="translate(288.934 65.96)" fill="#dadde7" opacity="0.7"/>
              <path id="Fill_70" data-name="Fill 70" d="M31.332,14.244c11.324,0,24.427,7.716,32.483,15.055,2-10.894,11.661-27.419,22.61-28.97A33.9,33.9,0,0,1,91.164,0c9.382,0,18.669,3.761,26.436,9.182,9.075,6.335,16.64,14.1,23.869,22.487C131.683,27.8,106.7,9.618,93.514,13.225c-14.994,4.1-22.9,16.812-22.779,31.258-7.287-3.6-20.542-8.47-40.762-8.416S5.127,58,4.185,64.921C-2.362,60.178-4.65,27.2,23.68,15.653A20.14,20.14,0,0,1,31.332,14.244Z" transform="translate(145.066 104.432)" fill="#dadde7" opacity="0.7"/>
              <path id="Fill_71" data-name="Fill 71" d="M0,84.157c.258-6.9,1.872-13.829,5.635-19.59a43.038,43.038,0,0,1,9.76-10.122c5.8-4.54,12.692-8.177,20.046-8.441C40.006,31.774,47.512,17.968,59.45,9A44.57,44.57,0,0,1,85.7,0a34.014,34.014,0,0,1,15,3.34V3.9C87.346,6.125,75.752,17.752,67.472,28.5,59.011,39.47,54.35,53.583,53.2,67.4,41.7,67.7,30.589,72.874,22.09,80.641q-1.862,1.7-3.6,3.516Z" transform="translate(268.552 97.218)" fill="#dadde7" opacity="0.7"/>
            </g>
            <g id="Group_10" data-name="Group 10" transform="translate(12.182 14.991)">
              <path id="Rectangle" d="M127.084,0A19.2,19.2,0,0,1,146.3,19.213l-.005,7.277a19.2,19.2,0,0,1-19.187,19.187l-107.893.075A19.2,19.2,0,0,1,0,26.539l.005-7.277A19.2,19.2,0,0,1,19.192.075Z" transform="matrix(0.966, -0.259, 0.259, 0.966, 58.512, 77.323)" fill="rgba(97,68,9,0.62)" opacity="0.5"/>
              <g id="Group" transform="translate(6.872 18.415)">
                <path id="Fill_4" data-name="Fill 4" d="M34.8-13.156C22.18-25.873,11.966-16.182,2.053-26.174S19.777-60.391,49.819-66.447c26.131-5.268,101.781,2.523,131.625,7.828A14.768,14.768,0,0,1,193.6-45.157c.274,3.91-.2,11.018-2.252,13.087-1.167,1.175-2.978.919-4.8.665a8.3,8.3,0,0,0-3.844.025c-6.228,2.273-12.554,4.29-18.879,6.277-16.947,5.325-34.022,10.247-51.154,14.931C100.037-6.717,87.05-2.263,74.1-.451a47.122,47.122,0,0,1-7.45.442C54.925-.237,43.14-4.747,34.8-13.156Z" transform="matrix(-0.985, 0.174, -0.174, -0.985, 212.05, -9.514)" fill="#ff4a3c"/>
                <path id="Fill_5" data-name="Fill 5" d="M148.216-2.32Q144.48-1.146,140.735,0c5.437-6.519,19.034-25.017,4.29-31.478-18.025-7.9-102.84-11.178-138.541,0A33.613,33.613,0,0,0,0-28.651,91.451,91.451,0,0,1,34.21-43.665c26.131-5.267,101.781,2.523,131.625,7.828a14.768,14.768,0,0,1,12.157,13.462c.274,3.91-.2,11.018-2.252,13.087-1.167,1.175-2.978.919-4.8.665a8.3,8.3,0,0,0-3.844.025C160.867-6.325,154.541-4.307,148.216-2.32Z" transform="matrix(-0.985, 0.174, -0.174, -0.985, 200.635, 15.633)" fill="#8f2018"/>
                <path id="Fill_7" data-name="Fill 7" d="M86.462-.142c-3.685-.417-38.978-4.345-74.023-6.33A91.443,91.443,0,0,0,0-14.377c33.4,1.358,70.156,5.14,82.992,6.538A14.631,14.631,0,0,1,86.941,0Z" transform="matrix(-0.985, 0.174, -0.174, -0.985, 115.236, 54.754)" fill="#8f2018"/>
                <path id="Fill_8" data-name="Fill 8" d="M13.79-21.805C24.053-15.143,34.334,0,45.016,0S69.043-3.153,74.825-8.982c4.559-4.593-4-11.73-8.265-13.5-10.21-4.247-16.8-10.8-19.792-18.623a3.268,3.268,0,0,0-3.492-2.1C34.834-42.044,11.309-38.248.869-31a2.016,2.016,0,0,0,.679,3.618A39.153,39.153,0,0,1,13.79-21.805Z" transform="matrix(-0.985, 0.174, -0.174, -0.985, 68.096, 6.691)" fill="#fff"/>
                <path id="Fill_10" data-name="Fill 10" d="M3.016,0A3.279,3.279,0,0,0,0-2.067,3.277,3.277,0,0,1,3.016,0Z" transform="matrix(-0.985, 0.174, -0.174, -0.985, 32.184, 54.834)" fill="#9dad84"/>
                <path id="Fill_11" data-name="Fill 11" d="M34.48-43.215l-.028,0-.033.006h-.014l-.021,0-.017,0c-6.737.934-22.8,3.51-34.369,8.127C18.393-28.449,36.964-3.337,33.92-.229A12,12,0,0,0,36.193,0c10.682,0-7.835-42.33-7.836-42.33C28.22-42.33,34.619-43.233,34.48-43.215Z" transform="matrix(-0.985, 0.174, -0.174, -0.985, 59.407, 8.224)" fill="#ebeff3"/>
                <path id="Fill_13" data-name="Fill 13" d="M56.941-13.877C50.969-12.633,33.833-6.069,22.206,0,15.1-.859,9.119-4.943,4.176-9.926c-.839-.844-1.525-1.52-2.141-2.165A7.293,7.293,0,0,1,2.309-22.47c2.9-2.677,7.315-5.4,13.776-8.544C35.6-40.5,46.3-38.347,49.13-35.5S60.979-14.718,56.941-13.877Z" transform="matrix(-0.985, 0.174, -0.174, -0.985, 184.061, -1.661)" fill="#0988a3"/>
                <path id="Fill_14" data-name="Fill 14" d="M56.941-13.877C50.969-12.633,33.833-6.069,22.206,0,15.1-.859,9.119-4.943,4.176-9.926c-.839-.844-1.525-1.52-2.141-2.165A7.293,7.293,0,0,1,2.309-22.47c2.9-2.677,7.315-5.4,13.776-8.544C35.6-40.5,46.3-38.347,49.13-35.5S60.979-14.718,56.941-13.877Z" transform="matrix(-0.985, 0.174, -0.174, -0.985, 184.061, -1.661)" fill="#fff"/>
                <path id="Fill_15" data-name="Fill 15" d="M5.7-18.23A6.62,6.62,0,0,0,.056-10.812L.719-5.747A6.588,6.588,0,0,0,8.078-.057L13.1-.723A6.622,6.622,0,0,0,18.75-8.141l-.663-5.067a6.589,6.589,0,0,0-7.359-5.69Z" transform="matrix(-0.985, 0.174, -0.174, -0.985, 120.646, 22.847)" fill="#fff"/>
                <path id="Fill_16" data-name="Fill 16" d="M4.67-14.93A5.424,5.424,0,0,0,.046-8.855L.589-4.706A5.4,5.4,0,0,0,6.616-.046l4.116-.547a5.422,5.422,0,0,0,4.623-6.075l-.541-4.149a5.4,5.4,0,0,0-6.027-4.66Z" transform="matrix(-0.985, 0.174, -0.174, -0.985, 98.082, 33.072)" fill="#fff"/>
                <path id="Fill_17" data-name="Fill 17" d="M3.936-12.584a4.571,4.571,0,0,0-3.9,5.121L.5-3.967A4.547,4.547,0,0,0,5.575-.039L9.046-.5a4.568,4.568,0,0,0,3.9-5.119l-.456-3.5A4.547,4.547,0,0,0,7.4-13.044Z" transform="matrix(-0.985, 0.174, -0.174, -0.985, 78.284, 42.055)" fill="#fff"/>
                <path id="Fill_23" data-name="Fill 23" d="M7.668-12.491c.486-6.966-2.156-12.83-5.9-13.127.667.024,1.338.056,2.017.1,14.812,1.05,26.424,7.581,25.935,14.588S16.823.906,2.01-.143C1.332-.191.663-.254,0-.325,3.753-.091,7.181-5.525,7.668-12.491Z" transform="matrix(-0.985, 0.174, -0.174, -0.985, 115.006, 68.653)" fill="#ff4a3c"/>
                <path id="Fill_24" data-name="Fill 24" d="M0-.325c3.75.235,7.176-5.192,7.666-12.149C12.7-14.763,18.136-18,19.792-21.793c6.3,2.773,10.212,6.736,9.924,10.865C29.229-3.921,16.823.906,2.01-.143,1.332-.191.663-.254,0-.325Z" transform="matrix(-0.985, 0.174, -0.174, -0.985, 115.006, 68.653)" fill="#8f2018"/>
                <path id="Fill_25" data-name="Fill 25" d="M6.025-.007l-.1-.011C2.2-.353-.426-6.2.057-13.138S3.951-25.5,7.687-25.3l.1,0c3.747.3,6.389,6.161,5.9,13.127S9.778.227,6.025-.007Z" transform="matrix(-0.985, 0.174, -0.174, -0.985, 120.995, 67.919)" fill="#ff4a3c"/>
                <path id="Fill_26" data-name="Fill 26" d="M11.846-6.528l.1.011a3.783,3.783,0,0,0,.614-.019C11.157-2.508,8.673.158,6.025-.007l-.1-.011C2.2-.353-.426-6.2.057-13.138.518-19.721,3.6-24.923,7.109-25.281a21.793,21.793,0,0,0-1.128,5.632C5.5-12.707,8.118-6.864,11.846-6.528Z" transform="matrix(-0.985, 0.174, -0.174, -0.985, 120.995, 67.919)" fill="#ff4a3c"/>
                <path id="Fill_27" data-name="Fill 27" d="M3.466,0C1.12-2.069-.31-6.707.057-11.986.4-16.929,2.231-21.085,4.6-23.006c2.343,2.07,3.771,6.709,3.4,11.986C7.662-6.082,5.835-1.924,3.466,0Z" transform="matrix(-0.985, 0.174, -0.174, -0.985, 115.595, 70.042)" fill="#fff"/>
                <path id="Fill_29" data-name="Fill 29" d="M7.808,25.282c-3.632,0-7.028-5.234-7.73-11.918a19.452,19.452,0,0,1,.984-8.951C2.039,1.93,3.539.393,5.286.085A3.764,3.764,0,0,1,5.938.028c3.634,0,7.032,5.235,7.736,11.918A19.459,19.459,0,0,1,12.69,20.9c-.977,2.482-2.477,4.018-4.224,4.326A3.8,3.8,0,0,1,7.808,25.282ZM6.151,3.261h0a2.509,2.509,0,0,0-.435.038C3.16,3.751,1.507,8.174,2.03,13.16a15.207,15.207,0,0,0,1.987,6.273c1.042,1.686,2.31,2.615,3.569,2.615a2.592,2.592,0,0,0,.449-.039c2.556-.451,4.208-4.873,3.684-9.858A15.021,15.021,0,0,0,9.692,5.825C8.648,4.172,7.39,3.262,6.151,3.262Z" transform="translate(109.547 68.921)" fill="#8f2018"/>
                <path id="Fill_30" data-name="Fill 30" d="M36.342-19.63c11.166,1.8-8.7,19.109-8.7,19.109S-4.314,2.911.492-7.839C.492-7.839,25.177-21.431,36.342-19.63Z" transform="matrix(-0.985, 0.174, -0.174, -0.985, 56.897, 60.148)" fill="#fff"/>
                <path id="Fill_31" data-name="Fill 31" d="M37.508-8.945c.926-1.791,1.559-4.464-1.867-5.711C30.778-16.426,7.2-2.765,2.513,0,.329-1.19-.676-2.962.492-5.572c0,0,24.684-13.592,35.85-11.791C41.186-16.583,40.19-12.884,37.508-8.945Z" transform="matrix(-0.985, 0.174, -0.174, -0.985, 57.29, 62.38)" fill="#ebeff3"/>
                <path id="Fill_32" data-name="Fill 32" d="M0,0,22.631-9.892S80.513-40.776,85.721-40.776a30.727,30.727,0,0,1,9.4,1.515A14.357,14.357,0,0,0,96.4-45.524c0-3.868-5.269-7.767-24.7-1.511C54.445-41.476,12.7-15.532,3.58-9.8A5.587,5.587,0,0,0,1.2-6.662Z" transform="matrix(-0.985, 0.174, -0.174, -0.985, 136.248, 43.55)" fill="#fff"/>
                <path id="Fill_33" data-name="Fill 33" d="M73.7-45.24c30.442-7.873,24.435,2.351,11.817,12.681C74.419-23.468,53.743-9.876,48.936-6.739a7.688,7.688,0,0,1-2.223.987C39.813-3.923,5.4,4.712,0-3.454,0-3.454,43.261-37.367,73.7-45.24Z" transform="matrix(-0.985, 0.174, -0.174, -0.985, 135.648, 40.148)" fill="#ebeff3"/>
                <path id="Fill_35" data-name="Fill 35" d="M4.275,0c6.745,0,19.577-3.084,24.38-4.3A6.241,6.241,0,0,0,31.88-6.321c.51-.6,1.121-1.343,1.766-2.174a29,29,0,0,0,2.983-4.76,24.836,24.836,0,0,0,1.715-5.079l.139.026c-.132-1.562-1.287-2.612-4.147-2.612C23.121-20.919.089-2.144.089-2.144-.428-.58,1.351,0,4.275,0Z" transform="matrix(-0.985, 0.174, -0.174, -0.985, 120.965, 46.683)" fill="#fff"/>
                <path id="Fill_37" data-name="Fill 37" d="M2.052-5.741c-5-5.044-.437-13.714,9.175-21.844.445.205.891.417,1.339.648C24.474-20.811,22.937-8.492,20.042,0,13.669-.771,7.809.061,2.052-5.741Z" transform="matrix(-0.985, 0.174, -0.174, -0.985, 215.597, 10.609)" fill="#8f2018"/>
                <path id="Fill_38" data-name="Fill 38" d="M2.049-5.507c-2.392-2.41-2.593-5.65-1.108-9.26a12.757,12.757,0,0,1,10.1-.389C18.833-11.886,18.662-4.621,17.619,0,12.169-.432,7.071-.446,2.049-5.507Z" transform="matrix(-0.985, 0.174, -0.174, -0.985, 215.635, 10.84)" fill="#ff4a3c"/>
              </g>
            </g>
          </g>
        </g>
      </g>
    </g>
  </g>
</svg>
