<svg xmlns="http://www.w3.org/2000/svg" width="63.579" height="16.989" viewBox="0 0 63.579 16.989">
  <g id="Brand_Logo" data-name="Brand Logo" transform="translate(0 0)">
    <path id="Vector" d="M8.881,15.974a8.254,8.254,0,0,1-4.8-1.747c-.87.7-1.314,1-1.81,1-.538,0-1.352-.838-1.352-2.1,0-.793.758-1,2.35-1.144A35.833,35.833,0,0,0,5.72,3.308c-2.278.288-3.7,1.056-4.348,2.35a1.141,1.141,0,0,1-.478.1C.343,5.762,0,5.291,0,4.534A3.928,3.928,0,0,1,2.088,1.394,10.268,10.268,0,0,1,7.529,0a7.27,7.27,0,0,1,4.42,1.128,3.458,3.458,0,0,1,1.362,2.907,7.18,7.18,0,0,1-2.5,4.6,4.094,4.094,0,0,1,2.537,3.536C13.353,14.551,11.681,15.974,8.881,15.974Zm-2.2-6.448A9.486,9.486,0,0,1,5.3,12.438,18.027,18.027,0,0,0,9.381,13.52a.867.867,0,0,0,.936-.873c0-1.126-1.02-2-3.64-3.12h0Zm1.31-1.518a8.354,8.354,0,0,1,1,.062,6.169,6.169,0,0,0,1-2.975c0-1.023-.577-1.581-1.872-1.809-.324,1.923-.651,3.488-1,4.783A5.076,5.076,0,0,1,7.988,8.008Zm29.507,7.925c-1.332,0-1.851-.9-1.851-3.224a11.652,11.652,0,0,1,.1-1.518l-.936.374c-.088.983-.126,1.925-.146,3.6a1.489,1.489,0,0,1-1.1.4,2.218,2.218,0,0,1-2.121-2.184c0-.058,0-.116,0-.175a2.785,2.785,0,0,1-1.527.487,1.414,1.414,0,0,1-.833-.208,4.323,4.323,0,0,1-3.557,2.1c-1.629,0-2.642-1.156-2.642-3.016a8.036,8.036,0,0,1,.582-3.016c-.816.081-1.532.145-1.539.146a10.466,10.466,0,0,1-1.721,3.934,4.149,4.149,0,0,1-3.25,1.952c-1.629,0-2.642-1.156-2.642-3.016A8.147,8.147,0,0,1,15.718,8,3.981,3.981,0,0,1,18.77,6.032c.566,0,1.145.283,1.165.915a1.434,1.434,0,0,1,1.186-.687c.742,0,1.1.524,1.1,1.6.814-.111,1.833-.25,2.475-.354a5.317,5.317,0,0,1,2.829-1.435.92.92,0,0,1,.977.874,1.29,1.29,0,0,1,2.288.915,11.445,11.445,0,0,1-.832,3.682.607.607,0,0,0,.416.145c.611,0,1.2-.485,1.859-1.526-.039.329-.078.666-.106.923a4.6,4.6,0,0,0-.683,2.113,3.569,3.569,0,0,0,1.635-2.342.815.815,0,0,0-.812-.749l-.034.054a32.047,32.047,0,0,1,1.511-7.641c.648-1.6,1.5-2.314,2.75-2.314a1.3,1.3,0,0,1,1.456,1.477c0,.911-.462,2.087-1.976,5.034a12.025,12.025,0,0,0-1.04,3.162L36.33,9.3a8.19,8.19,0,0,1,.728-1.269c.868-1.2,1.5-1.706,2.1-1.706a1.5,1.5,0,0,1,1.5,1.622c0,.945-.224,1.153-2.392,2.226a11.344,11.344,0,0,0,.161,2.333c.109.466.283.683.547.683.5,0,1.259-.774,2.543-2.586a22.887,22.887,0,0,0-.547,3.02C39.687,15.069,38.389,15.933,37.495,15.933ZM19.54,7.571c-1.277.563-2.267,2.811-2.267,4.369,0,1.177.557,1.269.728,1.269.763,0,1.436-1.768,1.705-3.515a1.016,1.016,0,0,1-.5-1A2.105,2.105,0,0,1,19.54,7.571Zm8.445.354a3.3,3.3,0,0,1-1.414.978,6.129,6.129,0,0,0-.728,2.891c0,1.14.469,1.31.749,1.31a1.608,1.608,0,0,0,1.206-.853,5.075,5.075,0,0,1-.332-1.913A7.641,7.641,0,0,1,27.985,7.924ZM58.109,15.85c-1.311,0-1.976-.588-1.976-1.748a7.856,7.856,0,0,1,.682-2.6,4.217,4.217,0,0,0,.338-1.08c0-.242-.2-.364-.687-.562A13.26,13.26,0,0,1,55,12.179a2.693,2.693,0,0,0,.584-1.4.749.749,0,0,0-.79-.687c-.077.118-.158.234-.238.344a7.285,7.285,0,0,0,.7-1.3,1.245,1.245,0,0,1-.312-.853c0-1.449,2.166-3.515,3.349-3.515.731,0,1.185.343,1.185.895a1.334,1.334,0,0,1-.062.416,3.008,3.008,0,0,0-1.206,1.04,5.6,5.6,0,0,0,.977.374c1.256.362,1.477.657,1.477,1.144a4.093,4.093,0,0,1-.562,1.581,7.345,7.345,0,0,0-.895,2.5c0,.336.116.5.354.5.574,0,2.039-1.29,3.141-3.017a.792.792,0,0,1,.873.645C63.579,12.118,60.063,15.85,58.109,15.85ZM42.589,15.7c-1.152,0-1.643-.479-1.643-1.6,0-.144.007-.306.022-.482a6.1,6.1,0,0,0,1.645-2.784.733.733,0,0,0-.812-.645q-.147.213-.286.409l.063-.274c.085-.368.159-.686.2-.9l.1-.56c.243-1.307.545-2.932.707-4.162C42.947,2.013,44.352.208,46.084.208a1.3,1.3,0,0,1,1.455,1.477c0,.915-.406,1.916-1.976,4.867-.257.923-1.539,5.559-1.539,6.157,0,.216.09.312.291.312.483,0,1.318-.681,2.179-1.778a6.173,6.173,0,0,0-.062.862,5.964,5.964,0,0,0,.135,1.324C45.556,14.479,43.908,15.7,42.589,15.7Zm6.817-.084a2.619,2.619,0,0,1-2.84-2.191,4.552,4.552,0,0,0,1.493-2.572.765.765,0,0,0-.79-.707c-.249.389-.51.757-.775,1.093.392-2.767,2.629-5.482,4.514-5.482A1.937,1.937,0,0,1,53.233,7.9c0,1.931-1.265,3.155-3.868,3.744a2.164,2.164,0,0,0,.188,1.065.839.839,0,0,0,.811.391,5.936,5.936,0,0,0,4.192-2.672c-.133.2-.277.4-.43.62l0,.006-.152.216a.878.878,0,0,0-.146.5.8.8,0,0,0,.833.811c.121-.136.234-.268.344-.4C53.844,13.835,51.376,15.62,49.406,15.62Zm1.082-7.675c-.264,0-.848.653-1,2.164.952-.17,1.415-.652,1.415-1.477C50.9,8.208,50.745,7.945,50.488,7.945Z" transform="translate(0 0.234)" fill="#fff"/>
    <path id="Vector-2" data-name="Vector" d="M43.222,7.956c-13.549-.238-21.8,1.664-27.49,6.315-1.433,1.172-3.868,1.244-4.87,2.421-2.534-.09-1.248.694-2.93.024-1.431-.57-2.541-4.36-4.765-4.357C1.627,12.36,0,9.569,0,9.569S23.229-10.842,43.222,7.956Z" transform="translate(17.23)" fill="#fcfdfe" opacity="0.1"/>
  </g>
</svg>
