<svg id="Icon_Menu_Left" data-name="Icon/Menu/Left" xmlns="http://www.w3.org/2000/svg" width="18" height="13.158" viewBox="0 0 18 13.158">
  <path id="Rectangle-20" d="M11.75,0A1.25,1.25,0,0,1,13,1.25v.132a1.25,1.25,0,0,1-1.25,1.25H1.25A1.25,1.25,0,0,1,0,1.382V1.25A1.25,1.25,0,0,1,1.25,0Z" transform="translate(5)" fill="#fff"/>
  <path id="Rectangle-20_Copy" data-name="Rectangle-20 Copy" d="M11.75,0A1.25,1.25,0,0,1,13,1.25v.132a1.25,1.25,0,0,1-1.25,1.25H1.25A1.25,1.25,0,0,1,0,1.382V1.25A1.25,1.25,0,0,1,1.25,0Z" transform="translate(5 5.263)" fill="#fff"/>
  <path id="Rectangle-20_Copy_2" data-name="Rectangle-20 Copy 2" d="M16.75,0A1.25,1.25,0,0,1,18,1.25v.132a1.25,1.25,0,0,1-1.25,1.25H1.25A1.25,1.25,0,0,1,0,1.382V1.25A1.25,1.25,0,0,1,1.25,0Z" transform="translate(0 10.526)" fill="#fff"/>
</svg>
